<?xml version="1.0" encoding="UTF-8" standalone="no"?>
<!-- Created with Inkscape (http://www.inkscape.org/) -->

<svg
   width="94mm"
   height="36mm"
   viewBox="0 0 94 36"
   version="1.1"
   id="svg5"
   inkscape:version="1.2.2 (b0a8486541, 2022-12-01)"
   sodipodi:docname="architecture.svg"
   inkscape:export-filename="architecture2.png"
   inkscape:export-xdpi="211.32449"
   inkscape:export-ydpi="211.32449"
   xmlns:inkscape="http://www.inkscape.org/namespaces/inkscape"
   xmlns:sodipodi="http://sodipodi.sourceforge.net/DTD/sodipodi-0.dtd"
   xmlns="http://www.w3.org/2000/svg"
   xmlns:svg="http://www.w3.org/2000/svg">
  <sodipodi:namedview
     id="namedview7"
     pagecolor="#ffffff"
     bordercolor="#000000"
     borderopacity="0.25"
     inkscape:showpageshadow="2"
     inkscape:pageopacity="0.0"
     inkscape:pagecheckerboard="0"
     inkscape:deskcolor="#d1d1d1"
     inkscape:document-units="mm"
     showgrid="true"
     showguides="true"
     inkscape:zoom="37.632703"
     inkscape:cx="26.599205"
     inkscape:cy="49.318806"
     inkscape:window-width="1920"
     inkscape:window-height="1051"
     inkscape:window-x="0"
     inkscape:window-y="29"
     inkscape:window-maximized="1"
     inkscape:current-layer="g7010">
    <inkscape:grid
       type="xygrid"
       id="grid9"
       empspacing="4"
       dotted="false"
       originx="0"
       originy="0"
       snapvisiblegridlinesonly="true" />
  </sodipodi:namedview>
  <defs
     id="defs2">
    <marker
       style="overflow:visible"
       id="marker7383"
       refX="0"
       refY="0"
       orient="auto-start-reverse"
       inkscape:stockid="Arrow1"
       markerWidth="4.0606599"
       markerHeight="6.7071061"
       viewBox="0 0 4.0606602 6.7071068"
       inkscape:isstock="true"
       inkscape:collect="always"
       preserveAspectRatio="xMidYMid">
      <path
         style="fill:none;stroke:context-stroke;stroke-width:1;stroke-linecap:butt"
         d="M 3,-3 0,0 3,3"
         id="path7381"
         transform="rotate(180,0.125,0)"
         sodipodi:nodetypes="ccc" />
    </marker>
    <marker
       style="overflow:visible"
       id="marker7265"
       refX="0"
       refY="0"
       orient="auto-start-reverse"
       inkscape:stockid="Arrow1"
       markerWidth="4.0606604"
       markerHeight="6.7071066"
       viewBox="0 0 4.0606602 6.7071068"
       inkscape:isstock="true"
       inkscape:collect="always"
       preserveAspectRatio="xMidYMid">
      <path
         style="fill:none;stroke:context-stroke;stroke-width:1;stroke-linecap:butt"
         d="M 3,-3 0,0 3,3"
         id="path7263"
         transform="rotate(180,0.125,0)"
         sodipodi:nodetypes="ccc" />
    </marker>
    <marker
       style="overflow:visible"
       id="marker3638"
       refX="0"
       refY="0"
       orient="auto-start-reverse"
       inkscape:stockid="Arrow1"
       markerWidth="4.0606599"
       markerHeight="6.7071066"
       viewBox="0 0 4.0606602 6.7071068"
       inkscape:isstock="true"
       inkscape:collect="always"
       preserveAspectRatio="xMidYMid">
      <path
         style="fill:none;stroke:context-stroke;stroke-width:1;stroke-linecap:butt"
         d="M 3,-3 0,0 3,3"
         id="path3636"
         transform="rotate(180,0.125,0)"
         sodipodi:nodetypes="ccc" />
    </marker>
    <marker
       style="overflow:visible"
       id="marker3250"
       refX="0"
       refY="0"
       orient="auto-start-reverse"
       inkscape:stockid="Arrow1"
       markerWidth="4.0606604"
       markerHeight="6.7071066"
       viewBox="0 0 4.0606602 6.7071068"
       inkscape:isstock="true"
       inkscape:collect="always"
       preserveAspectRatio="xMidYMid">
      <path
         style="fill:none;stroke:context-stroke;stroke-width:1;stroke-linecap:butt"
         d="M 3,-3 0,0 3,3"
         id="path3248"
         transform="rotate(180,0.125,0)"
         sodipodi:nodetypes="ccc" />
    </marker>
    <marker
       style="overflow:visible"
       id="Arrow1"
       refX="0"
       refY="0"
       orient="auto-start-reverse"
       inkscape:stockid="Arrow1"
       markerWidth="4.0606604"
       markerHeight="6.7071066"
       viewBox="0 0 4.0606602 6.7071068"
       inkscape:isstock="true"
       inkscape:collect="always"
       preserveAspectRatio="xMidYMid">
      <path
         style="fill:none;stroke:context-stroke;stroke-width:1;stroke-linecap:butt"
         d="M 3,-3 0,0 3,3"
         id="path5057"
         transform="rotate(180,0.125,0)"
         sodipodi:nodetypes="ccc" />
    </marker>
    <marker
       style="overflow:visible"
       id="marker2787"
       refX="0"
       refY="0"
       orient="auto-start-reverse"
       inkscape:stockid="Arrow1"
       markerWidth="4.0606604"
       markerHeight="6.7071066"
       viewBox="0 0 4.0606602 6.7071068"
       inkscape:isstock="true"
       inkscape:collect="always"
       preserveAspectRatio="xMidYMid">
      <path
         style="fill:none;stroke:context-stroke;stroke-width:1;stroke-linecap:butt"
         d="M 3,-3 0,0 3,3"
         id="path2785"
         transform="rotate(180,0.125,0)"
         sodipodi:nodetypes="ccc" />
    </marker>
    <linearGradient
       id="SVGID_1"
       gradientUnits="userSpaceOnUse"
       x1="21.8064"
       y1="19.2332"
       x2="42.298401"
       y2="19.2332">
      <stop
         offset="0%"
         style="stop-color:rgb(255,255,255);stop-opacity: 1"
         id="stop6991" />
      <stop
         offset="100%"
         style="stop-color:rgb(0,0,0);stop-opacity: 1"
         id="stop6993" />
    </linearGradient>
  </defs>
  <g
     inkscape:label="Layer 1"
     inkscape:groupmode="layer"
     id="layer1"
     transform="translate(-28.156987,-11.509165)">
    <path
       id="rect908"
       style="fill:none;stroke:#000000;stroke-width:0.223094"
       d="m 46.362364,12.491508 h 63.101066 c 0.41527,0 0.74959,0.334317 0.74959,0.749589 v 26.985228 c 0,0.415273 -0.33432,0.74959 -0.74959,0.74959 H 46.362364 c -0.415273,0 -0.74959,-0.334317 -0.74959,-0.74959 V 13.241097 c 0,-0.415272 0.334317,-0.749589 0.74959,-0.749589 z" />
    <path
       id="rect912"
       style="fill:none;stroke:#000000;stroke-width:0.194788"
       d="m 74.744291,13.535688 h 33.853879 c 0.31615,0 0.57066,0.254519 0.57066,0.570669 v 12.554709 c 0,0.31615 -0.25451,0.570668 -0.57066,0.570668 H 74.744291 c -0.316151,0 -0.570669,-0.254518 -0.570669,-0.570668 V 14.106357 c 0,-0.31615 0.254518,-0.570669 0.570669,-0.570669 z" />
    <path
       id="rect1073"
       style="fill:none;stroke:#000000;stroke-width:0.1018;stroke-linejoin:bevel"
       d="m 77.166259,17.940794 h 17.726394 c 0.07302,0 0.131797,0.05878 0.131797,0.131797 v 3.253004 c 0,0.07302 -0.05878,0.131797 -0.131797,0.131797 H 77.166259 c -0.07302,0 -0.131797,-0.05878 -0.131797,-0.131797 v -3.253004 c 0,-0.07302 0.05878,-0.131797 0.131797,-0.131797 z" />
    <g
       aria-label="Algorithmic Core"
       transform="translate(0.92037515,0.52280781)"
       id="text1077"
       style="font-size:2.11667px;white-space:pre;shape-inside:url(#rect1073);display:inline;stroke:#000000;stroke-width:0.167;stroke-linejoin:bevel">
      <path
         d="M 78.188741,19.867312 78.006708,19.399528 H 77.40769 l -0.179917,0.467784 h -0.192617 l 0.590551,-1.517653 h 0.17145 l 0.588435,1.517653 z m -0.408517,-1.094319 q -0.0063,-0.01693 -0.02117,-0.06138 -0.01482,-0.04445 -0.02963,-0.09102 -0.0127,-0.04868 -0.02117,-0.07408 -0.01482,0.06562 -0.03387,0.129117 -0.01905,0.06138 -0.03175,0.09737 l -0.171451,0.457201 h 0.478368 z"
         id="path3357" />
      <path
         d="m 78.753892,19.867312 h -0.186267 v -1.608669 h 0.186267 z"
         id="path3359" />
      <path
         d="m 79.515892,18.71161 q 0.112184,0 0.201084,0.04233 0.09102,0.04233 0.154517,0.129117 h 0.01058 l 0.0254,-0.150283 h 0.148167 v 1.153585 q 0,0.243417 -0.124884,0.366184 -0.122766,0.122766 -0.383117,0.122766 -0.249767,0 -0.408517,-0.07197 v -0.171451 q 0.167217,0.0889 0.4191,0.0889 0.146051,0 0.228601,-0.08678 0.08467,-0.08467 0.08467,-0.232834 v -0.04445 q 0,-0.0254 0.0021,-0.07197 0.0021,-0.04868 0.0042,-0.06773 h -0.0085 q -0.1143,0.17145 -0.351367,0.17145 -0.220134,0 -0.345017,-0.154517 -0.122767,-0.154516 -0.122767,-0.4318 0,-0.270934 0.122767,-0.429684 0.124883,-0.160867 0.3429,-0.160867 z m 0.0254,0.156633 q -0.141817,0 -0.220134,0.114301 -0.07832,0.112183 -0.07832,0.321733 0,0.209551 0.0762,0.321734 0.07832,0.110067 0.226483,0.110067 0.171451,0 0.249767,-0.09102 0.07832,-0.09313 0.07832,-0.29845 v -0.04445 q 0,-0.232834 -0.08043,-0.332317 -0.08043,-0.101601 -0.251884,-0.101601 z"
         id="path3361" />
      <path
         d="m 81.401844,19.297927 q 0,0.281518 -0.143933,0.436034 -0.141817,0.154517 -0.385234,0.154517 -0.150284,0 -0.268817,-0.06773 -0.116417,-0.06985 -0.18415,-0.201084 -0.06773,-0.13335 -0.06773,-0.321734 0,-0.281517 0.141817,-0.433917 0.141817,-0.1524 0.385234,-0.1524 0.154517,0 0.270934,0.06985 0.118533,0.06773 0.18415,0.198967 0.06773,0.129117 0.06773,0.3175 z m -0.857251,0 q 0,0.201084 0.07832,0.319618 0.08043,0.116416 0.254,0.116416 0.17145,0 0.251884,-0.116416 0.08043,-0.118534 0.08043,-0.319618 0,-0.201083 -0.08043,-0.315383 -0.08043,-0.114301 -0.254,-0.114301 -0.173567,0 -0.251884,0.114301 -0.07832,0.1143 -0.07832,0.315383 z"
         id="path3363" />
      <path
         d="m 82.225228,18.71161 q 0.03175,0 0.06773,0.0042 0.0381,0.0021 0.06562,0.0085 l -0.02328,0.17145 q -0.02752,-0.0063 -0.06138,-0.01058 -0.03175,-0.0042 -0.06138,-0.0042 -0.08678,0 -0.162983,0.04868 -0.0762,0.04657 -0.122767,0.13335 -0.04445,0.08467 -0.04445,0.198967 v 0.605368 h -0.186267 v -1.134535 h 0.1524 l 0.02117,0.207433 h 0.0085 q 0.05503,-0.09313 0.141817,-0.160867 0.08678,-0.06773 0.205317,-0.06773 z"
         id="path3365" />
      <path
         d="m 82.665495,18.307326 q 0.04233,0 0.07408,0.02963 0.03387,0.02752 0.03387,0.0889 0,0.05927 -0.03387,0.0889 -0.03175,0.02963 -0.07408,0.02963 -0.04657,0 -0.07832,-0.02963 -0.03175,-0.02963 -0.03175,-0.0889 0,-0.06138 0.03175,-0.0889 0.03175,-0.02963 0.07832,-0.02963 z m 0.09102,0.425451 v 1.134535 h -0.186267 v -1.134535 z"
         id="path3367" />
      <path
         d="m 83.495229,19.736078 q 0.04233,0 0.08678,-0.0063 0.04445,-0.0085 0.07197,-0.01693 v 0.141817 q -0.02963,0.01482 -0.08467,0.02328 -0.05503,0.01058 -0.105833,0.01058 -0.0889,0 -0.1651,-0.02963 -0.07408,-0.03175 -0.120651,-0.10795 -0.04657,-0.0762 -0.04657,-0.213784 V 18.87671 h -0.160867 v -0.0889 l 0.162983,-0.07408 0.07408,-0.241301 h 0.110067 v 0.260351 h 0.328083 v 0.143933 h -0.328083 v 0.656168 q 0,0.103717 0.04868,0.154517 0.0508,0.04868 0.129117,0.04868 z"
         id="path3369" />
      <path
         d="m 84.06673,18.73066 q 0,0.08467 -0.01058,0.15875 h 0.0127 q 0.05503,-0.08678 0.148167,-0.131233 0.09525,-0.04445 0.205317,-0.04445 0.207433,0 0.31115,0.09948 0.103717,0.09737 0.103717,0.315384 v 0.738718 h -0.18415 v -0.726018 q 0,-0.273051 -0.254001,-0.273051 -0.1905,0 -0.262467,0.107951 -0.06985,0.105833 -0.06985,0.3048 v 0.586318 h -0.186267 v -1.608669 h 0.186267 z"
         id="path3371" />
      <path
         d="m 86.433167,18.71161 q 0.192617,0 0.287867,0.09948 0.09525,0.09737 0.09525,0.317501 v 0.738718 h -0.18415 v -0.730251 q 0,-0.268818 -0.230717,-0.268818 -0.165101,0 -0.237067,0.09525 -0.06985,0.09525 -0.06985,0.277283 v 0.626535 h -0.184151 v -0.730251 q 0,-0.268818 -0.232833,-0.268818 -0.171451,0 -0.237067,0.105834 -0.06562,0.105833 -0.06562,0.3048 v 0.588435 h -0.186267 v -1.134535 h 0.150283 l 0.02752,0.154516 h 0.01058 q 0.05292,-0.0889 0.141817,-0.131233 0.09102,-0.04445 0.192617,-0.04445 0.266701,0 0.347134,0.1905 h 0.01058 q 0.05715,-0.09737 0.154516,-0.143933 0.09948,-0.04657 0.209551,-0.04657 z"
         id="path3373" />
      <path
         d="m 87.2629,18.307326 q 0.04233,0 0.07408,0.02963 0.03387,0.02752 0.03387,0.0889 0,0.05927 -0.03387,0.0889 -0.03175,0.02963 -0.07408,0.02963 -0.04657,0 -0.07832,-0.02963 -0.03175,-0.02963 -0.03175,-0.0889 0,-0.06138 0.03175,-0.0889 0.03175,-0.02963 0.07832,-0.02963 z m 0.09102,0.425451 v 1.134535 H 87.16765 v -1.134535 z"
         id="path3375" />
      <path
         d="m 88.168834,19.888478 q -0.150284,0 -0.268818,-0.06138 -0.116416,-0.06138 -0.18415,-0.1905 -0.06562,-0.129117 -0.06562,-0.330201 0,-0.20955 0.06985,-0.340784 0.06985,-0.131233 0.188383,-0.192617 0.12065,-0.06138 0.273051,-0.06138 0.08678,0 0.167216,0.01905 0.08043,0.01693 0.131234,0.04233 l -0.05715,0.154517 q -0.0508,-0.01905 -0.118534,-0.03598 -0.06773,-0.01693 -0.127,-0.01693 -0.334434,0 -0.334434,0.429684 0,0.205317 0.08043,0.315384 0.08255,0.10795 0.243417,0.10795 0.09313,0 0.162983,-0.01905 0.07197,-0.01905 0.131234,-0.04657 v 0.1651 q -0.05715,0.02963 -0.127,0.04445 -0.06773,0.01693 -0.1651,0.01693 z"
         id="path3377" />
      <path
         d="m 89.953186,18.50206 q -0.243417,0 -0.383117,0.162983 -0.1397,0.162984 -0.1397,0.446618 0,0.281517 0.129117,0.446617 0.131233,0.162983 0.391584,0.162983 0.09948,0 0.188383,-0.01693 0.0889,-0.01693 0.173567,-0.04233 v 0.1651 q -0.08467,0.03175 -0.175684,0.04657 -0.0889,0.01482 -0.213783,0.01482 -0.230717,0 -0.385234,-0.09525 -0.154517,-0.09525 -0.232834,-0.270934 -0.0762,-0.175683 -0.0762,-0.41275 0,-0.228601 0.08255,-0.402167 0.08467,-0.175684 0.247651,-0.273051 0.162983,-0.09948 0.395817,-0.09948 0.239184,0 0.416984,0.0889 l -0.0762,0.160867 q -0.06985,-0.03175 -0.156634,-0.05715 -0.08467,-0.0254 -0.186267,-0.0254 z"
         id="path3379" />
      <path
         d="m 91.604189,19.297927 q 0,0.281518 -0.143934,0.436034 -0.141817,0.154517 -0.385234,0.154517 -0.150284,0 -0.268817,-0.06773 -0.116417,-0.06985 -0.18415,-0.201084 -0.06773,-0.13335 -0.06773,-0.321734 0,-0.281517 0.141817,-0.433917 0.141817,-0.1524 0.385234,-0.1524 0.154517,0 0.270934,0.06985 0.118533,0.06773 0.18415,0.198967 0.06773,0.129117 0.06773,0.3175 z m -0.857252,0 q 0,0.201084 0.07832,0.319618 0.08043,0.116416 0.254,0.116416 0.171451,0 0.251884,-0.116416 0.08043,-0.118534 0.08043,-0.319618 0,-0.201083 -0.08043,-0.315383 -0.08043,-0.114301 -0.254,-0.114301 -0.173567,0 -0.251884,0.114301 -0.07832,0.1143 -0.07832,0.315383 z"
         id="path3381" />
      <path
         d="m 92.427572,18.71161 q 0.03175,0 0.06773,0.0042 0.0381,0.0021 0.06562,0.0085 l -0.02328,0.17145 q -0.02752,-0.0063 -0.06138,-0.01058 -0.03175,-0.0042 -0.06138,-0.0042 -0.08678,0 -0.162983,0.04868 -0.0762,0.04657 -0.122767,0.13335 -0.04445,0.08467 -0.04445,0.198967 v 0.605368 h -0.186267 v -1.134535 h 0.1524 l 0.02117,0.207433 h 0.0085 q 0.05503,-0.09313 0.141817,-0.160867 0.08678,-0.06773 0.205317,-0.06773 z"
         id="path3383" />
      <path
         d="m 93.168406,18.71161 q 0.146051,0 0.249767,0.0635 0.105834,0.0635 0.160867,0.179917 0.05715,0.1143 0.05715,0.268817 v 0.112184 h -0.776817 q 0.0042,0.192616 0.09737,0.294217 0.09525,0.09948 0.264584,0.09948 0.10795,0 0.1905,-0.01905 0.08467,-0.02117 0.173567,-0.05927 v 0.162984 q -0.08678,0.0381 -0.17145,0.05503 -0.08467,0.01905 -0.201084,0.01905 -0.160866,0 -0.28575,-0.06562 -0.122767,-0.06562 -0.192617,-0.194734 -0.06773,-0.131234 -0.06773,-0.319617 0,-0.186267 0.06138,-0.319617 0.0635,-0.133351 0.175684,-0.205317 0.1143,-0.07197 0.264583,-0.07197 z m -0.0021,0.1524 q -0.133351,0 -0.211667,0.08678 -0.0762,0.08467 -0.09102,0.237067 h 0.577851 q -0.0021,-0.143934 -0.06773,-0.232834 -0.06562,-0.09102 -0.207433,-0.09102 z"
         id="path3385" />
    </g>
    <path
       id="rect1073-6-2"
       style="fill:#ffffff;stroke:#000000;stroke-width:0.151579;stroke-linejoin:bevel"
       d="m 99.68694,16.688629 h 21.36835 c 0.13329,0 0.2406,0.107303 0.2406,0.24059 v 5.938235 c 0,0.133287 -0.10731,0.24059 -0.2406,0.24059 H 99.68694 c -0.133287,0 -0.24059,-0.107303 -0.24059,-0.24059 v -5.938235 c 0,-0.133287 0.107303,-0.24059 0.24059,-0.24059 z" />
    <g
       aria-label="User definable Regex Theory"
       transform="translate(0.04141206,0.522808)"
       id="text1077-7-9"
       style="font-size:2.11667px;-inkscape-font-specification:'sans-serif, Normal';white-space:pre;shape-inside:url(#rect1073-6-2);display:inline;stroke:#000000;stroke-width:0.167;stroke-linejoin:bevel">
      <path
         d="m 101.1657,18.081958 q 0,0.156633 -0.0635,0.283633 -0.0635,0.124884 -0.19473,0.198967 -0.12912,0.07197 -0.3302,0.07197 -0.28152,0 -0.42969,-0.1524 -0.14605,-0.154517 -0.14605,-0.406401 v -0.973668 h 0.1905 v 0.980018 q 0,0.184151 0.0974,0.285751 0.0995,0.1016 0.29845,0.1016 0.20532,0 0.29633,-0.10795 0.0931,-0.110067 0.0931,-0.281517 v -0.977902 h 0.18838 z"
         style="text-align:center;text-anchor:middle"
         id="path3309" />
      <path
         d="m 102.27696,18.302091 q 0,0.165101 -0.12277,0.249767 -0.12277,0.08467 -0.3302,0.08467 -0.11854,0 -0.20532,-0.01905 -0.0847,-0.01905 -0.15028,-0.05292 v -0.169333 q 0.0677,0.03387 0.16298,0.0635 0.0974,0.02752 0.19685,0.02752 0.14182,0 0.20532,-0.04445 0.0635,-0.04657 0.0635,-0.122767 0,-0.04233 -0.0233,-0.0762 -0.0233,-0.03387 -0.0847,-0.06773 -0.0593,-0.03387 -0.17145,-0.0762 -0.11007,-0.04233 -0.18839,-0.08467 -0.0783,-0.04233 -0.12065,-0.1016 -0.0423,-0.05927 -0.0423,-0.1524 0,-0.143934 0.11642,-0.22225 0.11853,-0.07832 0.30903,-0.07832 0.10372,0 0.19262,0.02117 0.091,0.01905 0.16933,0.05503 l -0.0635,0.148167 q -0.072,-0.02963 -0.15028,-0.0508 -0.0783,-0.02117 -0.16087,-0.02117 -0.1143,0 -0.17568,0.0381 -0.0593,0.03598 -0.0593,0.09948 0,0.04657 0.0275,0.08043 0.0275,0.03175 0.091,0.0635 0.0656,0.02963 0.17357,0.07197 0.10795,0.04022 0.18415,0.08255 0.0762,0.04233 0.11642,0.103717 0.0402,0.05927 0.0402,0.150283 z"
         style="text-align:center;text-anchor:middle"
         id="path3311" />
      <path
         d="m 102.99027,17.459657 q 0.14605,0 0.24977,0.0635 0.10583,0.0635 0.16087,0.179917 0.0572,0.1143 0.0572,0.268817 v 0.112183 h -0.77682 q 0.004,0.192617 0.0974,0.294218 0.0952,0.09948 0.26458,0.09948 0.10795,0 0.1905,-0.01905 0.0847,-0.02117 0.17357,-0.05927 v 0.162984 q -0.0868,0.0381 -0.17145,0.05503 -0.0847,0.01905 -0.20109,0.01905 -0.16086,0 -0.28575,-0.06562 -0.12276,-0.06562 -0.19261,-0.194733 -0.0677,-0.131234 -0.0677,-0.319617 0,-0.186267 0.0614,-0.319617 0.0635,-0.133351 0.17568,-0.205317 0.1143,-0.07197 0.26458,-0.07197 z m -0.002,0.1524 q -0.13335,0 -0.21167,0.08678 -0.0762,0.08467 -0.091,0.237067 h 0.57785 q -0.002,-0.143933 -0.0677,-0.232833 -0.0656,-0.09102 -0.20743,-0.09102 z"
         style="text-align:center;text-anchor:middle"
         id="path3313" />
      <path
         d="m 104.27509,17.459657 q 0.0317,0 0.0677,0.0042 0.0381,0.0021 0.0656,0.0085 l -0.0233,0.17145 q -0.0275,-0.0063 -0.0614,-0.01058 -0.0318,-0.0042 -0.0614,-0.0042 -0.0868,0 -0.16298,0.04868 -0.0762,0.04657 -0.12277,0.13335 -0.0444,0.08467 -0.0444,0.198967 v 0.605368 h -0.18627 v -1.134536 h 0.1524 l 0.0212,0.207434 h 0.008 q 0.055,-0.09313 0.14181,-0.160867 0.0868,-0.06773 0.20532,-0.06773 z"
         style="text-align:center;text-anchor:middle"
         id="path3315" />
      <path
         d="m 105.57261,18.636525 q -0.21167,0 -0.33867,-0.14605 -0.127,-0.148167 -0.127,-0.440267 0,-0.292101 0.127,-0.440268 0.12912,-0.150283 0.34079,-0.150283 0.13123,0 0.21378,0.04868 0.0847,0.04868 0.13758,0.118534 h 0.0127 q -0.002,-0.02752 -0.008,-0.08043 -0.004,-0.05503 -0.004,-0.08678 v -0.452968 h 0.18627 v 1.60867 h -0.15028 l -0.0275,-0.152401 h -0.008 q -0.0508,0.07197 -0.13546,0.122767 -0.0847,0.0508 -0.21802,0.0508 z m 0.0296,-0.154517 q 0.17992,0 0.25189,-0.09737 0.0741,-0.09948 0.0741,-0.298451 v -0.03387 q 0,-0.211667 -0.0699,-0.32385 -0.0699,-0.1143 -0.25823,-0.1143 -0.15029,0 -0.22649,0.12065 -0.0741,0.118533 -0.0741,0.319617 0,0.2032 0.0741,0.315384 0.0762,0.112183 0.2286,0.112183 z"
         style="text-align:center;text-anchor:middle"
         id="path3317" />
      <path
         d="m 106.91034,17.459657 q 0.14605,0 0.24977,0.0635 0.10583,0.0635 0.16087,0.179917 0.0571,0.1143 0.0571,0.268817 v 0.112183 h -0.77682 q 0.004,0.192617 0.0974,0.294218 0.0953,0.09948 0.26458,0.09948 0.10795,0 0.1905,-0.01905 0.0847,-0.02117 0.17357,-0.05927 v 0.162984 q -0.0868,0.0381 -0.17145,0.05503 -0.0847,0.01905 -0.20109,0.01905 -0.16086,0 -0.28575,-0.06562 -0.12276,-0.06562 -0.19261,-0.194733 -0.0677,-0.131234 -0.0677,-0.319617 0,-0.186267 0.0614,-0.319617 0.0635,-0.133351 0.17568,-0.205317 0.1143,-0.07197 0.26458,-0.07197 z m -0.002,0.1524 q -0.13335,0 -0.21167,0.08678 -0.0762,0.08467 -0.091,0.237067 h 0.57785 q -0.002,-0.143933 -0.0677,-0.232833 -0.0656,-0.09102 -0.20743,-0.09102 z"
         style="text-align:center;text-anchor:middle"
         id="path3319" />
      <path
         d="m 108.18881,17.624757 h -0.28575 v 0.990602 h -0.18627 v -0.990602 h -0.19896 v -0.08678 l 0.19896,-0.0635 v -0.06562 q 0,-0.220134 0.0974,-0.315384 0.0974,-0.09737 0.27093,-0.09737 0.0677,0 0.12277,0.0127 0.0572,0.01058 0.0974,0.0254 l -0.0487,0.14605 q -0.0339,-0.01058 -0.0783,-0.02117 -0.0444,-0.01058 -0.091,-0.01058 -0.0931,0 -0.1397,0.0635 -0.0444,0.06138 -0.0444,0.194734 v 0.07408 h 0.28575 z m 0.30057,-0.569384 q 0.0423,0 0.0741,0.02963 0.0339,0.02752 0.0339,0.0889 0,0.05927 -0.0339,0.0889 -0.0318,0.02963 -0.0741,0.02963 -0.0466,0 -0.0783,-0.02963 -0.0318,-0.02963 -0.0318,-0.0889 0,-0.06138 0.0318,-0.0889 0.0317,-0.02963 0.0783,-0.02963 z m 0.091,0.42545 v 1.134536 h -0.18627 v -1.134536 z"
         style="text-align:center;text-anchor:middle"
         id="path3321" />
      <path
         d="m 109.48633,17.459657 q 0.2032,0 0.30692,0.09948 0.10371,0.09737 0.10371,0.317501 v 0.738718 h -0.18415 v -0.726018 q 0,-0.273051 -0.254,-0.273051 -0.18838,0 -0.26035,0.105834 -0.072,0.105833 -0.072,0.3048 v 0.588435 h -0.18626 v -1.134536 h 0.15028 l 0.0275,0.154517 h 0.0106 q 0.055,-0.0889 0.1524,-0.131233 0.0974,-0.04445 0.20532,-0.04445 z"
         style="text-align:center;text-anchor:middle"
         id="path3323" />
      <path
         d="m 110.67801,17.461773 q 0.20744,0 0.30692,0.09102 0.0995,0.09102 0.0995,0.289984 v 0.772585 h -0.13546 l -0.036,-0.160867 h -0.008 q -0.0741,0.09313 -0.15664,0.137583 -0.0804,0.04445 -0.22436,0.04445 -0.15452,0 -0.25612,-0.08043 -0.1016,-0.08255 -0.1016,-0.256117 0,-0.169334 0.13335,-0.260351 0.13335,-0.09313 0.41063,-0.1016 l 0.19262,-0.0063 v -0.06773 q 0,-0.141817 -0.0614,-0.196851 -0.0614,-0.05503 -0.17357,-0.05503 -0.0889,0 -0.16933,0.02752 -0.0804,0.0254 -0.15029,0.05927 l -0.0571,-0.1397 q 0.0741,-0.04022 0.17569,-0.06773 0.1016,-0.02963 0.21166,-0.02963 z m 0.055,0.605368 q -0.21167,0.0085 -0.29422,0.06773 -0.0804,0.05927 -0.0804,0.167217 0,0.09525 0.0571,0.139701 0.0593,0.04445 0.15028,0.04445 0.14393,0 0.23918,-0.07832 0.0953,-0.08043 0.0953,-0.245534 v -0.1016 z"
         style="text-align:center;text-anchor:middle"
         id="path3325" />
      <path
         d="m 111.62205,17.398273 q 0,0.07197 -0.004,0.135467 -0.002,0.06138 -0.006,0.09737 h 0.0106 q 0.0487,-0.07197 0.13335,-0.12065 0.0847,-0.04868 0.21802,-0.04868 0.21166,0 0.33866,0.148167 0.12912,0.146051 0.12912,0.438151 0,0.2921 -0.12912,0.440267 -0.12911,0.148167 -0.33866,0.148167 -0.13335,0 -0.21802,-0.04868 -0.0847,-0.04868 -0.13335,-0.116417 h -0.0148 l -0.0381,0.143934 h -0.13335 v -1.60867 h 0.18627 z m 0.31962,0.218017 q -0.17992,0 -0.24977,0.103717 -0.0699,0.103717 -0.0699,0.321734 v 0.0085 q 0,0.20955 0.0677,0.321733 0.0699,0.110067 0.25612,0.110067 0.1524,0 0.22648,-0.112183 0.0762,-0.112184 0.0762,-0.323851 0,-0.429684 -0.30691,-0.429684 z"
         style="text-align:center;text-anchor:middle"
         id="path3327" />
      <path
         d="m 112.9238,18.615359 h -0.18627 v -1.60867 h 0.18627 z"
         style="text-align:center;text-anchor:middle"
         id="path3329" />
      <path
         d="m 113.72179,17.459657 q 0.14605,0 0.24976,0.0635 0.10584,0.0635 0.16087,0.179917 0.0572,0.1143 0.0572,0.268817 v 0.112183 h -0.77682 q 0.004,0.192617 0.0974,0.294218 0.0952,0.09948 0.26458,0.09948 0.10795,0 0.1905,-0.01905 0.0847,-0.02117 0.17357,-0.05927 v 0.162984 q -0.0868,0.0381 -0.17145,0.05503 -0.0847,0.01905 -0.20108,0.01905 -0.16087,0 -0.28576,-0.06562 -0.12276,-0.06562 -0.19261,-0.194733 -0.0677,-0.131234 -0.0677,-0.319617 0,-0.186267 0.0614,-0.319617 0.0635,-0.133351 0.17568,-0.205317 0.1143,-0.07197 0.26459,-0.07197 z m -0.002,0.1524 q -0.13335,0 -0.21167,0.08678 -0.0762,0.08467 -0.091,0.237067 h 0.57786 q -0.002,-0.143933 -0.0677,-0.232833 -0.0656,-0.09102 -0.20743,-0.09102 z"
         style="text-align:center;text-anchor:middle"
         id="path3331" />
      <path
         d="m 115.47015,17.104056 q 0.28152,0 0.41487,0.10795 0.13547,0.105834 0.13547,0.321734 0,0.12065 -0.0444,0.201084 -0.0444,0.08043 -0.1143,0.129117 -0.0677,0.04657 -0.14394,0.07408 l 0.41487,0.677335 h -0.22225 l -0.36618,-0.624418 h -0.30057 v 0.624418 h -0.1905 v -1.511303 z m -0.0106,0.1651 h -0.2159 v 0.560918 h 0.22648 q 0.18415,0 0.26882,-0.07197 0.0847,-0.07408 0.0847,-0.2159 0,-0.148167 -0.0889,-0.20955 -0.0889,-0.0635 -0.27517,-0.0635 z"
         style="text-align:center;text-anchor:middle"
         id="path3333" />
      <path
         d="m 116.78249,17.459657 q 0.14605,0 0.24977,0.0635 0.10583,0.0635 0.16086,0.179917 0.0572,0.1143 0.0572,0.268817 v 0.112183 h -0.77682 q 0.004,0.192617 0.0974,0.294218 0.0953,0.09948 0.26459,0.09948 0.10795,0 0.1905,-0.01905 0.0847,-0.02117 0.17356,-0.05927 v 0.162984 q -0.0868,0.0381 -0.17145,0.05503 -0.0847,0.01905 -0.20108,0.01905 -0.16087,0 -0.28575,-0.06562 -0.12277,-0.06562 -0.19262,-0.194733 -0.0677,-0.131234 -0.0677,-0.319617 0,-0.186267 0.0614,-0.319617 0.0635,-0.133351 0.17568,-0.205317 0.1143,-0.07197 0.26459,-0.07197 z m -0.002,0.1524 q -0.13335,0 -0.21167,0.08678 -0.0762,0.08467 -0.091,0.237067 h 0.57785 q -0.002,-0.143933 -0.0677,-0.232833 -0.0656,-0.09102 -0.20744,-0.09102 z"
         style="text-align:center;text-anchor:middle"
         id="path3335" />
      <path
         d="m 117.94031,17.459657 q 0.11218,0 0.20108,0.04233 0.091,0.04233 0.15452,0.129117 h 0.0106 l 0.0254,-0.150284 h 0.14817 v 1.153586 q 0,0.243417 -0.12489,0.366183 -0.12276,0.122767 -0.38311,0.122767 -0.24977,0 -0.40852,-0.07197 v -0.171451 q 0.16721,0.0889 0.4191,0.0889 0.14605,0 0.2286,-0.08678 0.0847,-0.08467 0.0847,-0.232834 v -0.04445 q 0,-0.0254 0.002,-0.07197 0.002,-0.04868 0.004,-0.06773 h -0.008 q -0.1143,0.17145 -0.35137,0.17145 -0.22013,0 -0.34502,-0.154517 -0.12276,-0.154517 -0.12276,-0.4318 0,-0.270934 0.12276,-0.429684 0.12489,-0.160867 0.34291,-0.160867 z m 0.0254,0.156633 q -0.14182,0 -0.22014,0.114301 -0.0783,0.112183 -0.0783,0.321733 0,0.209551 0.0762,0.321734 0.0783,0.110067 0.22649,0.110067 0.17145,0 0.24977,-0.09102 0.0783,-0.09313 0.0783,-0.29845 v -0.04445 q 0,-0.232834 -0.0804,-0.332318 -0.0804,-0.1016 -0.25188,-0.1016 z"
         style="text-align:center;text-anchor:middle"
         id="path3337" />
      <path
         d="m 119.27804,17.459657 q 0.14605,0 0.24977,0.0635 0.10583,0.0635 0.16086,0.179917 0.0571,0.1143 0.0571,0.268817 v 0.112183 H 118.969 q 0.004,0.192617 0.0974,0.294218 0.0952,0.09948 0.26459,0.09948 0.10795,0 0.1905,-0.01905 0.0847,-0.02117 0.17356,-0.05927 v 0.162984 q -0.0868,0.0381 -0.17145,0.05503 -0.0847,0.01905 -0.20108,0.01905 -0.16087,0 -0.28575,-0.06562 -0.12277,-0.06562 -0.19262,-0.194733 -0.0677,-0.131234 -0.0677,-0.319617 0,-0.186267 0.0614,-0.319617 0.0635,-0.133351 0.17568,-0.205317 0.11431,-0.07197 0.26459,-0.07197 z m -0.002,0.1524 q -0.13335,0 -0.21167,0.08678 -0.0762,0.08467 -0.091,0.237067 h 0.57785 q -0.002,-0.143933 -0.0677,-0.232833 -0.0656,-0.09102 -0.20744,-0.09102 z"
         style="text-align:center;text-anchor:middle"
         id="path3339" />
      <path
         d="m 120.26017,18.035391 -0.39158,-0.554568 h 0.21166 l 0.2921,0.427568 0.28999,-0.427568 h 0.20955 l -0.39158,0.554568 0.41275,0.579968 h -0.21167 l -0.30904,-0.452968 -0.31326,0.452968 h -0.20955 z"
         style="text-align:center;text-anchor:middle"
         id="path3341" />
      <path
         d="m 107.59826,21.261196 h -0.1905 v -1.344085 h -0.47202 v -0.167217 h 1.13242 v 0.167217 h -0.4699 z"
         style="text-align:center;text-anchor:middle"
         id="path3343" />
      <path
         d="m 108.45762,20.124545 q 0,0.08467 -0.0106,0.15875 h 0.0127 q 0.055,-0.08678 0.14817,-0.131234 0.0952,-0.04445 0.20532,-0.04445 0.20743,0 0.31115,0.09948 0.10371,0.09737 0.10371,0.315384 v 0.738717 h -0.18415 v -0.726017 q 0,-0.273051 -0.254,-0.273051 -0.1905,0 -0.26246,0.10795 -0.0699,0.105834 -0.0699,0.304801 v 0.586317 h -0.18626 v -1.608669 h 0.18626 z"
         style="text-align:center;text-anchor:middle"
         id="path3345" />
      <path
         d="m 110.01761,20.105495 q 0.14605,0 0.24977,0.0635 0.10583,0.0635 0.16086,0.179917 0.0571,0.1143 0.0571,0.268817 v 0.112183 h -0.77681 q 0.004,0.192617 0.0974,0.294217 0.0952,0.09948 0.26459,0.09948 0.10795,0 0.1905,-0.01905 0.0847,-0.02117 0.17356,-0.05927 v 0.162984 q -0.0868,0.0381 -0.17145,0.05503 -0.0847,0.01905 -0.20108,0.01905 -0.16087,0 -0.28575,-0.06562 -0.12277,-0.06562 -0.19262,-0.194733 -0.0677,-0.131234 -0.0677,-0.319618 0,-0.186266 0.0614,-0.319617 0.0635,-0.13335 0.17569,-0.205317 0.1143,-0.07197 0.26458,-0.07197 z m -0.002,0.1524 q -0.13335,0 -0.21166,0.08678 -0.0762,0.08467 -0.091,0.237067 h 0.57785 q -0.002,-0.143933 -0.0677,-0.232833 -0.0656,-0.09102 -0.20744,-0.09102 z"
         style="text-align:center;text-anchor:middle"
         id="path3347" />
      <path
         d="m 111.75963,20.691812 q 0,0.281517 -0.14394,0.436034 -0.14181,0.154517 -0.38523,0.154517 -0.15028,0 -0.26882,-0.06773 -0.11641,-0.06985 -0.18415,-0.201084 -0.0677,-0.13335 -0.0677,-0.321734 0,-0.281517 0.14182,-0.433917 0.14181,-0.1524 0.38523,-0.1524 0.15452,0 0.27093,0.06985 0.11854,0.06773 0.18415,0.198967 0.0677,0.129116 0.0677,0.3175 z m -0.85725,0 q 0,0.201084 0.0783,0.319617 0.0804,0.116417 0.254,0.116417 0.17145,0 0.25189,-0.116417 0.0804,-0.118533 0.0804,-0.319617 0,-0.201084 -0.0804,-0.315384 -0.0804,-0.1143 -0.254,-0.1143 -0.17357,0 -0.25189,0.1143 -0.0783,0.1143 -0.0783,0.315384 z"
         style="text-align:center;text-anchor:middle"
         id="path3349" />
      <path
         d="m 112.58301,20.105495 q 0.0318,0 0.0677,0.0042 0.0381,0.0021 0.0656,0.0085 l -0.0233,0.17145 q -0.0275,-0.0064 -0.0614,-0.01058 -0.0317,-0.0042 -0.0614,-0.0042 -0.0868,0 -0.16298,0.04868 -0.0762,0.04657 -0.12277,0.13335 -0.0444,0.08467 -0.0444,0.198967 v 0.605367 h -0.18627 v -1.134535 h 0.1524 l 0.0212,0.207434 h 0.008 q 0.055,-0.09313 0.14181,-0.160867 0.0868,-0.06773 0.20532,-0.06773 z"
         style="text-align:center;text-anchor:middle"
         id="path3351" />
      <path
         d="m 112.75023,20.126661 h 0.19897 l 0.24553,0.645585 q 0.0317,0.08467 0.0571,0.162983 0.0254,0.0762 0.0381,0.14605 h 0.008 q 0.0127,-0.05292 0.0402,-0.137583 0.0275,-0.08678 0.0571,-0.173567 l 0.23072,-0.643468 h 0.20108 l -0.48895,1.291169 q -0.0593,0.160867 -0.15451,0.256117 -0.0931,0.09525 -0.25824,0.09525 -0.0508,0 -0.0889,-0.0063 -0.0381,-0.0042 -0.0656,-0.01058 v -0.148167 q 0.0233,0.0042 0.055,0.0085 0.0339,0.0042 0.0699,0.0042 0.0974,0 0.15663,-0.05503 0.0614,-0.05503 0.0953,-0.14605 l 0.0593,-0.150283 z"
         style="text-align:center;text-anchor:middle"
         id="path3353" />
    </g>
    <path
       id="rect1073-6-26"
       style="fill:#ffffff;stroke-width:0.0999086;stroke-linejoin:bevel"
       d="m 69.204319,39.017868 h 14.242143 c 0.08692,0 0.156894,0.06997 0.156894,0.156895 v 3.872471 c 0,0.08692 -0.06997,0.156895 -0.156894,0.156895 H 69.204319 c -0.08692,0 -0.156895,-0.06997 -0.156895,-0.156895 v -3.872471 c 0,-0.08692 0.06997,-0.156895 0.156895,-0.156895 z" />
    <g
       aria-label="String Solver"
       transform="translate(0.920375,0.522808)"
       id="text1077-7-1"
       style="font-size:2.11667px;white-space:pre;shape-inside:url(#rect1073-6-26);display:inline;stroke:#000000;stroke-width:0.167;stroke-linejoin:bevel">
      <path
         d="m 70.109443,40.5392 q 0,0.201083 -0.14605,0.313267 -0.14605,0.112183 -0.393701,0.112183 -0.127,0 -0.23495,-0.01905 -0.10795,-0.01905 -0.179917,-0.05292 V 40.71065 q 0.0762,0.03387 0.188384,0.06138 0.1143,0.02752 0.23495,0.02752 0.169334,0 0.254001,-0.06562 0.08678,-0.06562 0.08678,-0.1778 0,-0.07408 -0.03175,-0.124884 -0.03175,-0.0508 -0.110067,-0.09313 -0.0762,-0.04445 -0.213784,-0.09313 -0.192617,-0.06985 -0.2921,-0.17145 -0.09737,-0.1016 -0.09737,-0.277284 0,-0.12065 0.06138,-0.205317 0.06138,-0.08678 0.169333,-0.13335 0.110067,-0.04657 0.251884,-0.04657 0.124883,0 0.2286,0.02328 0.103717,0.02328 0.188384,0.06138 l -0.05927,0.162984 q -0.07832,-0.03387 -0.17145,-0.05715 -0.09102,-0.02328 -0.1905,-0.02328 -0.141817,0 -0.213784,0.06138 -0.07197,0.05927 -0.07197,0.15875 0,0.0762 0.03175,0.127 0.03175,0.0508 0.103717,0.09102 0.07197,0.04022 0.194734,0.08678 0.13335,0.04868 0.224367,0.105833 0.09313,0.05503 0.1397,0.13335 0.04868,0.07832 0.04868,0.196851 z"
         id="path3283" />
      <path
         d="m 70.767727,40.81225 q 0.04233,0 0.08678,-0.0063 0.04445,-0.0085 0.07197,-0.01693 v 0.141817 q -0.02963,0.01482 -0.08467,0.02328 -0.05503,0.01058 -0.105834,0.01058 -0.0889,0 -0.1651,-0.02963 -0.07408,-0.03175 -0.12065,-0.10795 -0.04657,-0.0762 -0.04657,-0.213784 v -0.660401 h -0.160867 v -0.0889 l 0.162984,-0.07408 0.07408,-0.2413 h 0.110067 v 0.26035 h 0.328084 v 0.143934 h -0.328084 v 0.656168 q 0,0.103717 0.04868,0.154517 0.0508,0.04868 0.129117,0.04868 z"
         id="path3285" />
      <path
         d="m 71.682129,39.787782 q 0.03175,0 0.06773,0.0042 0.0381,0.0021 0.06562,0.0085 l -0.02328,0.17145 q -0.02752,-0.0064 -0.06138,-0.01058 -0.03175,-0.0042 -0.06138,-0.0042 -0.08678,0 -0.162984,0.04868 -0.0762,0.04657 -0.122767,0.13335 -0.04445,0.08467 -0.04445,0.198967 v 0.605368 h -0.186267 v -1.134536 h 0.1524 l 0.02117,0.207434 h 0.0085 q 0.05503,-0.09313 0.141817,-0.160867 0.08678,-0.06773 0.205317,-0.06773 z"
         id="path3287" />
      <path
         d="m 72.122396,39.383498 q 0.04233,0 0.07408,0.02963 0.03387,0.02752 0.03387,0.0889 0,0.05927 -0.03387,0.0889 -0.03175,0.02963 -0.07408,0.02963 -0.04657,0 -0.07832,-0.02963 -0.03175,-0.02963 -0.03175,-0.0889 0,-0.06138 0.03175,-0.0889 0.03175,-0.02963 0.07832,-0.02963 z m 0.09102,0.42545 v 1.134536 h -0.186267 v -1.134536 z"
         id="path3289" />
      <path
         d="m 73.119346,39.787782 q 0.203201,0 0.306918,0.09948 0.103716,0.09737 0.103716,0.317501 v 0.738718 h -0.18415 v -0.726018 q 0,-0.273051 -0.254,-0.273051 -0.188384,0 -0.260351,0.105834 -0.07197,0.105833 -0.07197,0.3048 v 0.588435 h -0.186267 v -1.134536 h 0.150283 l 0.02752,0.154517 h 0.01058 q 0.05503,-0.0889 0.1524,-0.131233 0.09737,-0.04445 0.205317,-0.04445 z"
         id="path3291" />
      <path
         d="m 74.283515,39.787782 q 0.112184,0 0.201084,0.04233 0.09102,0.04233 0.154517,0.129117 h 0.01058 l 0.0254,-0.150284 h 0.148167 v 1.153586 q 0,0.243417 -0.124884,0.366183 -0.122767,0.122767 -0.383117,0.122767 -0.249767,0 -0.408517,-0.07197 v -0.171451 q 0.167217,0.0889 0.4191,0.0889 0.146051,0 0.228601,-0.08678 0.08467,-0.08467 0.08467,-0.232834 V 40.9329 q 0,-0.0254 0.0021,-0.07197 0.0021,-0.04868 0.0042,-0.06773 h -0.0085 q -0.1143,0.17145 -0.351367,0.17145 -0.220134,0 -0.345018,-0.154517 -0.122766,-0.154517 -0.122766,-0.4318 0,-0.270934 0.122766,-0.429684 0.124884,-0.160867 0.342901,-0.160867 z m 0.0254,0.156633 q -0.141817,0 -0.220134,0.114301 -0.07832,0.112183 -0.07832,0.321733 0,0.209551 0.0762,0.321734 0.07832,0.110067 0.226483,0.110067 0.171451,0 0.249767,-0.09102 0.07832,-0.09313 0.07832,-0.29845 v -0.04445 q 0,-0.232834 -0.08043,-0.332318 -0.08043,-0.1016 -0.251884,-0.1016 z"
         id="path3293" />
      <path
         d="m 76.616085,40.5392 q 0,0.201083 -0.14605,0.313267 -0.14605,0.112183 -0.393701,0.112183 -0.127,0 -0.23495,-0.01905 -0.10795,-0.01905 -0.179917,-0.05292 V 40.71065 q 0.0762,0.03387 0.188384,0.06138 0.1143,0.02752 0.23495,0.02752 0.169334,0 0.254,-0.06562 0.08678,-0.06562 0.08678,-0.1778 0,-0.07408 -0.03175,-0.124884 -0.03175,-0.0508 -0.110067,-0.09313 -0.0762,-0.04445 -0.213784,-0.09313 -0.192617,-0.06985 -0.2921,-0.17145 -0.09737,-0.1016 -0.09737,-0.277284 0,-0.12065 0.06138,-0.205317 0.06138,-0.08678 0.169334,-0.13335 0.110067,-0.04657 0.251884,-0.04657 0.124883,0 0.2286,0.02328 0.103717,0.02328 0.188384,0.06138 l -0.05927,0.162984 q -0.07832,-0.03387 -0.17145,-0.05715 -0.09102,-0.02328 -0.190501,-0.02328 -0.141816,0 -0.213783,0.06138 -0.07197,0.05927 -0.07197,0.15875 0,0.0762 0.03175,0.127 0.03175,0.0508 0.103717,0.09102 0.07197,0.04022 0.194734,0.08678 0.13335,0.04868 0.224367,0.105833 0.09313,0.05503 0.1397,0.13335 0.04868,0.07832 0.04868,0.196851 z"
         id="path3295" />
      <path
         d="m 77.881853,40.374099 q 0,0.281517 -0.143933,0.436034 -0.141817,0.154517 -0.385234,0.154517 -0.150284,0 -0.268817,-0.06773 -0.116417,-0.06985 -0.184151,-0.201084 -0.06773,-0.13335 -0.06773,-0.321734 0,-0.281517 0.141817,-0.433917 0.141817,-0.1524 0.385234,-0.1524 0.154517,0 0.270933,0.06985 0.118534,0.06773 0.184151,0.198967 0.06773,0.129117 0.06773,0.3175 z m -0.857251,0 q 0,0.201084 0.07832,0.319617 0.08043,0.116417 0.254,0.116417 0.17145,0 0.251884,-0.116417 0.08043,-0.118533 0.08043,-0.319617 0,-0.201083 -0.08043,-0.315383 -0.08043,-0.114301 -0.254001,-0.114301 -0.173567,0 -0.251883,0.114301 -0.07832,0.1143 -0.07832,0.315383 z"
         id="path3297" />
      <path
         d="M 78.362337,40.943484 H 78.17607 v -1.60867 h 0.186267 z"
         id="path3299" />
      <path
         d="m 78.971937,40.943484 -0.429684,-1.134536 h 0.198967 l 0.2413,0.668868 q 0.01693,0.04657 0.03598,0.103717 0.01905,0.05715 0.03387,0.110067 0.01482,0.0508 0.02117,0.08678 h 0.0085 q 0.0085,-0.03598 0.02328,-0.0889 0.01693,-0.05292 0.03598,-0.110067 0.02117,-0.05715 0.03598,-0.1016 l 0.2413,-0.668868 h 0.198967 l -0.431801,1.134536 z"
         id="path3301" />
      <path
         d="m 80.235587,39.787782 q 0.14605,0 0.249767,0.0635 0.105834,0.0635 0.160867,0.179917 0.05715,0.1143 0.05715,0.268817 v 0.112183 h -0.776818 q 0.0042,0.192617 0.09737,0.294218 0.09525,0.09948 0.264584,0.09948 0.10795,0 0.1905,-0.01905 0.08467,-0.02117 0.173567,-0.05927 v 0.162984 q -0.08678,0.0381 -0.17145,0.05503 -0.08467,0.01905 -0.201084,0.01905 -0.160867,0 -0.28575,-0.06562 -0.122767,-0.06562 -0.192617,-0.194733 -0.06773,-0.131234 -0.06773,-0.319617 0,-0.186267 0.06138,-0.319617 0.0635,-0.133351 0.175683,-0.205317 0.1143,-0.07197 0.264584,-0.07197 z m -0.0021,0.1524 q -0.13335,0 -0.211667,0.08678 -0.0762,0.08467 -0.09102,0.237067 h 0.57785 q -0.0021,-0.143933 -0.06773,-0.232833 -0.06562,-0.09102 -0.207434,-0.09102 z"
         id="path3303" />
      <path
         d="m 81.520404,39.787782 q 0.03175,0 0.06773,0.0042 0.0381,0.0021 0.06562,0.0085 l -0.02328,0.17145 q -0.02752,-0.0064 -0.06138,-0.01058 -0.03175,-0.0042 -0.06138,-0.0042 -0.08678,0 -0.162984,0.04868 -0.0762,0.04657 -0.122767,0.13335 -0.04445,0.08467 -0.04445,0.198967 v 0.605368 h -0.186267 v -1.134536 h 0.152401 l 0.02117,0.207434 h 0.0085 q 0.05503,-0.09313 0.141817,-0.160867 0.08678,-0.06773 0.205317,-0.06773 z"
         id="path3305" />
    </g>
    <path
       id="rect1073-6-26-7"
       style="fill:#ffffff;stroke-width:0.0750148;stroke-linejoin:bevel"
       d="m 88.139759,25.348156 h 7.892143 c 0.08692,0 0.156895,0.06997 0.156895,0.156895 v 3.872471 c 0,0.08692 -0.06997,0.156895 -0.156895,0.156895 h -7.892143 c -0.08692,0 -0.156895,-0.06998 -0.156895,-0.156895 v -3.872471 c 0,-0.08692 0.06997,-0.156895 0.156895,-0.156895 z" />
    <g
       aria-label="Library"
       transform="translate(0.920375,0.522808)"
       id="text1077-7-1-9"
       style="font-size:2.11667px;white-space:pre;shape-inside:url(#rect1073-6-26-7);display:inline;stroke:#000000;stroke-width:0.167;stroke-linejoin:bevel">
      <path
         d="m 88.187739,27.273562 v -1.511303 h 0.1905 v 1.341969 h 0.660401 v 0.169334 z"
         id="path3267" />
      <path
         d="m 89.366724,25.713576 q 0.04233,0 0.07408,0.02963 0.03387,0.02752 0.03387,0.0889 0,0.05927 -0.03387,0.0889 -0.03175,0.02963 -0.07408,0.02963 -0.04657,0 -0.07832,-0.02963 -0.03175,-0.02963 -0.03175,-0.0889 0,-0.06138 0.03175,-0.0889 0.03175,-0.02963 0.07832,-0.02963 z m 0.09102,0.425451 v 1.134535 h -0.186267 v -1.134535 z"
         id="path3269" />
      <path
         d="m 90.003841,26.056476 q 0,0.07197 -0.0042,0.135467 -0.0021,0.06138 -0.0063,0.09737 h 0.01058 q 0.04868,-0.07197 0.13335,-0.12065 0.08467,-0.04868 0.218017,-0.04868 0.211667,0 0.338667,0.148166 0.129117,0.146051 0.129117,0.438151 0,0.292101 -0.129117,0.440267 -0.129117,0.148167 -0.338667,0.148167 -0.13335,0 -0.218017,-0.04868 -0.08467,-0.04868 -0.13335,-0.116417 h -0.01482 l -0.0381,0.143934 h -0.13335 v -1.608669 h 0.186267 z m 0.319617,0.218017 q -0.179917,0 -0.249767,0.103717 -0.06985,0.103717 -0.06985,0.321734 v 0.0085 q 0,0.20955 0.06773,0.321734 0.06985,0.110066 0.256117,0.110066 0.152401,0 0.226484,-0.112183 0.0762,-0.112184 0.0762,-0.323851 0,-0.429684 -0.306917,-0.429684 z"
         id="path3271" />
      <path
         d="m 91.648493,26.11786 q 0.03175,0 0.06773,0.0042 0.0381,0.0021 0.06562,0.0085 l -0.02328,0.17145 q -0.02752,-0.0063 -0.06138,-0.01058 -0.03175,-0.0042 -0.06138,-0.0042 -0.08678,0 -0.162984,0.04868 -0.0762,0.04657 -0.122767,0.13335 -0.04445,0.08467 -0.04445,0.198967 v 0.605368 h -0.186267 v -1.134535 h 0.1524 l 0.02117,0.207433 h 0.0085 q 0.05503,-0.09313 0.141817,-0.160867 0.08678,-0.06773 0.205317,-0.06773 z"
         id="path3273" />
      <path
         d="m 92.38086,26.119977 q 0.207433,0 0.306917,0.09102 0.09948,0.09102 0.09948,0.289984 v 0.772585 h -0.135466 l -0.03598,-0.160867 h -0.0085 q -0.07408,0.09313 -0.156633,0.137583 -0.08043,0.04445 -0.224367,0.04445 -0.154517,0 -0.256117,-0.08043 -0.1016,-0.08255 -0.1016,-0.256117 0,-0.169334 0.13335,-0.260351 0.13335,-0.09313 0.410634,-0.1016 l 0.192617,-0.0063 v -0.06773 q 0,-0.141817 -0.06138,-0.19685 -0.06138,-0.05503 -0.173567,-0.05503 -0.0889,0 -0.169333,0.02752 -0.08043,0.0254 -0.150284,0.05927 l -0.05715,-0.139701 q 0.07408,-0.04022 0.175684,-0.06773 0.1016,-0.02963 0.211667,-0.02963 z m 0.05503,0.605367 q -0.211667,0.0085 -0.294217,0.06773 -0.08043,0.05927 -0.08043,0.167217 0,0.09525 0.05715,0.1397 0.05927,0.04445 0.150283,0.04445 0.143934,0 0.239184,-0.07832 0.09525,-0.08043 0.09525,-0.245534 v -0.1016 z"
         id="path3275" />
      <path
         d="m 93.667797,26.11786 q 0.03175,0 0.06773,0.0042 0.0381,0.0021 0.06562,0.0085 l -0.02328,0.17145 q -0.02752,-0.0063 -0.06138,-0.01058 -0.03175,-0.0042 -0.06138,-0.0042 -0.08678,0 -0.162984,0.04868 -0.0762,0.04657 -0.122766,0.13335 -0.04445,0.08467 -0.04445,0.198967 v 0.605368 H 93.13863 v -1.134535 h 0.1524 l 0.02117,0.207433 h 0.0085 q 0.05503,-0.09313 0.141817,-0.160867 0.08678,-0.06773 0.205317,-0.06773 z"
         id="path3277" />
      <path
         d="m 93.835014,26.139027 h 0.198967 l 0.245534,0.645584 q 0.03175,0.08467 0.05715,0.162983 0.0254,0.0762 0.0381,0.146051 h 0.0085 q 0.0127,-0.05292 0.04022,-0.137584 0.02752,-0.08678 0.05715,-0.173567 l 0.230717,-0.643467 h 0.201084 l -0.488951,1.291168 q -0.05927,0.160867 -0.154517,0.256117 -0.09313,0.09525 -0.258234,0.09525 -0.0508,0 -0.0889,-0.0064 -0.0381,-0.0042 -0.06562,-0.01058 v -0.148167 q 0.02328,0.0042 0.05503,0.0085 0.03387,0.0042 0.06985,0.0042 0.09737,0 0.156634,-0.05503 0.06138,-0.05503 0.09525,-0.14605 l 0.05927,-0.150284 z"
         id="path3279" />
    </g>
    <path
       id="rect1073-6-3"
       style="fill:none;stroke:#000000;stroke-width:0.114083;stroke-linejoin:bevel"
       d="m 50.052405,22.087536 h 18.679319 c 0.08686,0 0.156782,0.06993 0.156782,0.156782 v 3.869693 c 0,0.08686 -0.06993,0.156782 -0.156782,0.156782 H 50.052405 c -0.08686,0 -0.156783,-0.06993 -0.156783,-0.156782 v -3.869693 c 0,-0.08686 0.06992,-0.156782 0.156783,-0.156782 z" />
    <g
       aria-label="SMT-LIB Interface"
       transform="translate(0.89872094,0.90782732)"
       id="text1077-7-7"
       style="font-size:2.11667px;white-space:pre;shape-inside:url(#rect1073-6-3);display:inline;stroke:#000000;stroke-width:0.167;stroke-linejoin:bevel">
      <path
         d="m 50.959053,23.609512 q 0,0.201084 -0.146051,0.313267 -0.14605,0.112184 -0.3937,0.112184 -0.127,0 -0.234951,-0.01905 -0.10795,-0.01905 -0.179916,-0.05292 v -0.182034 q 0.0762,0.03387 0.188383,0.06138 0.1143,0.02752 0.234951,0.02752 0.169333,0 0.254,-0.06562 0.08678,-0.06562 0.08678,-0.177801 0,-0.07408 -0.03175,-0.124883 -0.03175,-0.0508 -0.110067,-0.09313 -0.0762,-0.04445 -0.213783,-0.09313 -0.192617,-0.06985 -0.292101,-0.17145 -0.09737,-0.1016 -0.09737,-0.277284 0,-0.12065 0.06138,-0.205317 0.06138,-0.08678 0.169334,-0.13335 0.110066,-0.04657 0.251883,-0.04657 0.124884,0 0.228601,0.02328 0.103716,0.02328 0.188383,0.06138 l -0.05927,0.162983 q -0.07832,-0.03387 -0.171451,-0.05715 -0.09102,-0.02328 -0.1905,-0.02328 -0.141817,0 -0.213784,0.06138 -0.07197,0.05927 -0.07197,0.158751 0,0.0762 0.03175,0.127 0.03175,0.0508 0.103716,0.09102 0.07197,0.04022 0.194734,0.08678 0.13335,0.04868 0.224367,0.105834 0.09313,0.05503 0.1397,0.13335 0.04868,0.07832 0.04868,0.19685 z"
         id="path3232" />
      <path
         d="m 51.930604,24.013796 -0.497418,-1.325035 h -0.0085 q 0.0063,0.06562 0.01058,0.1778 0.0042,0.110067 0.0042,0.230717 v 0.916518 h -0.175683 v -1.511302 h 0.281517 l 0.465667,1.238252 h 0.0085 l 0.474134,-1.238252 h 0.2794 v 1.511302 h -0.188383 v -0.929218 q 0,-0.110067 0.0042,-0.218017 0.0064,-0.10795 0.01058,-0.175684 h -0.0085 l -0.503768,1.322919 z"
         id="path3234" />
      <path
         d="m 53.662039,24.013796 h -0.1905 v -1.344085 h -0.472018 v -0.167217 h 1.132419 v 0.167217 h -0.469901 z"
         id="path3236" />
      <path
         d="m 54.155221,23.529079 v -0.165101 h 0.512234 v 0.165101 z"
         id="path3238" />
      <path
         d="m 54.957439,24.013796 v -1.511302 h 0.190501 v 1.341968 h 0.660401 v 0.169334 z"
         id="path3240" />
      <path
         d="m 56.492025,24.013796 h -0.546101 v -0.110067 l 0.177801,-0.04022 v -1.208618 l -0.177801,-0.04233 v -0.110067 h 0.546101 v 0.110067 l -0.1778,0.04233 v 1.208618 l 0.1778,0.04022 z"
         id="path3242" />
      <path
         d="m 57.215928,22.502494 q 0.283634,0 0.427567,0.08467 0.14605,0.08255 0.14605,0.289983 0,0.133351 -0.07408,0.222251 -0.07408,0.08678 -0.213784,0.112183 v 0.01058 q 0.09525,0.01482 0.171451,0.05503 0.07832,0.04022 0.122766,0.1143 0.04445,0.07408 0.04445,0.192617 0,0.205317 -0.141816,0.317501 -0.139701,0.112183 -0.383118,0.112183 h -0.531284 v -1.511302 z m 0.0381,0.643467 q 0.194734,0 0.2667,-0.06138 0.07197,-0.0635 0.07197,-0.186267 0,-0.124884 -0.0889,-0.1778 -0.08678,-0.05503 -0.2794,-0.05503 h -0.249768 v 0.480484 z m -0.279401,0.158751 v 0.548217 h 0.304801 q 0.201084,0 0.2794,-0.07832 0.07832,-0.07832 0.07832,-0.205317 0,-0.118533 -0.08255,-0.1905 -0.08043,-0.07408 -0.289984,-0.07408 z"
         id="path3244" />
      <path
         d="m 59.135748,24.013796 h -0.546101 v -0.110067 l 0.1778,-0.04022 v -1.208618 l -0.1778,-0.04233 v -0.110067 h 0.546101 v 0.110067 l -0.177801,0.04233 v 1.208618 l 0.177801,0.04022 z"
         id="path3246" />
      <path
         d="m 59.94855,22.858094 q 0.2032,0 0.306917,0.09948 0.103717,0.09737 0.103717,0.3175 v 0.738718 h -0.18415 v -0.726018 q 0,-0.27305 -0.254001,-0.27305 -0.188383,0 -0.26035,0.105833 -0.07197,0.105834 -0.07197,0.304801 v 0.588434 h -0.186267 v -1.134535 h 0.150284 l 0.02752,0.154517 h 0.01058 q 0.05503,-0.0889 0.1524,-0.131234 0.09737,-0.04445 0.205317,-0.04445 z"
         id="path3249" />
      <path
         d="m 61.089435,23.882562 q 0.04233,0 0.08678,-0.0064 0.04445,-0.0085 0.07197,-0.01693 v 0.141817 q -0.02963,0.01482 -0.08467,0.02328 -0.05503,0.01058 -0.105833,0.01058 -0.0889,0 -0.165101,-0.02963 -0.07408,-0.03175 -0.12065,-0.10795 -0.04657,-0.0762 -0.04657,-0.213783 v -0.660401 h -0.160867 v -0.0889 l 0.162983,-0.07408 0.07408,-0.2413 h 0.110067 v 0.26035 h 0.328083 v 0.143934 h -0.328083 v 0.656167 q 0,0.103717 0.04868,0.154517 0.0508,0.04868 0.129117,0.04868 z"
         id="path3251" />
      <path
         d="m 61.91282,22.858094 q 0.14605,0 0.249767,0.0635 0.105833,0.0635 0.160867,0.179917 0.05715,0.1143 0.05715,0.268817 v 0.112184 h -0.776818 q 0.0042,0.192617 0.09737,0.294217 0.09525,0.09948 0.264583,0.09948 0.107951,0 0.190501,-0.01905 0.08467,-0.02117 0.173567,-0.05927 v 0.162983 q -0.08678,0.0381 -0.171451,0.05503 -0.08467,0.01905 -0.201083,0.01905 -0.160867,0 -0.285751,-0.06562 -0.122766,-0.06562 -0.192617,-0.194734 -0.06773,-0.131233 -0.06773,-0.319617 0,-0.186267 0.06138,-0.319617 0.0635,-0.13335 0.175684,-0.205317 0.1143,-0.07197 0.264584,-0.07197 z m -0.0021,0.152401 q -0.13335,0 -0.211667,0.08678 -0.0762,0.08467 -0.09102,0.237067 h 0.577851 q -0.0021,-0.143934 -0.06773,-0.232834 -0.06562,-0.09102 -0.207434,-0.09102 z"
         id="path3253" />
      <path
         d="m 63.197637,22.858094 q 0.03175,0 0.06773,0.0042 0.0381,0.0021 0.06562,0.0085 l -0.02328,0.171451 q -0.02752,-0.0064 -0.06138,-0.01058 -0.03175,-0.0042 -0.06138,-0.0042 -0.08678,0 -0.162983,0.04868 -0.0762,0.04657 -0.122767,0.13335 -0.04445,0.08467 -0.04445,0.198967 v 0.605368 h -0.186267 v -1.134535 h 0.1524 l 0.02117,0.207434 h 0.0085 q 0.05503,-0.09313 0.141817,-0.160867 0.08678,-0.06773 0.205317,-0.06773 z"
         id="path3255" />
      <path
         d="m 64.065472,23.023195 h -0.28575 v 0.990601 h -0.186267 v -0.990601 h -0.198967 v -0.08678 l 0.198967,-0.0635 v -0.06562 q 0,-0.220133 0.09737,-0.315384 0.09737,-0.09737 0.270934,-0.09737 0.06773,0 0.122767,0.0127 0.05715,0.01058 0.09737,0.0254 l -0.04868,0.14605 q -0.03387,-0.01058 -0.07832,-0.02117 -0.04445,-0.01058 -0.09102,-0.01058 -0.09313,0 -0.1397,0.0635 -0.04445,0.06138 -0.04445,0.194734 v 0.07408 h 0.28575 z"
         id="path3257" />
      <path
         d="m 64.700473,22.860211 q 0.207433,0 0.306917,0.09102 0.09948,0.09102 0.09948,0.289984 v 0.772584 h -0.135467 l -0.03598,-0.160867 h -0.0085 q -0.07408,0.09313 -0.156633,0.137584 -0.08043,0.04445 -0.224367,0.04445 -0.154517,0 -0.256117,-0.08043 -0.1016,-0.08255 -0.1016,-0.256117 0,-0.169333 0.13335,-0.26035 0.13335,-0.09313 0.410634,-0.1016 l 0.192617,-0.0064 v -0.06773 q 0,-0.141817 -0.06138,-0.19685 -0.06138,-0.05503 -0.173567,-0.05503 -0.0889,0 -0.169333,0.02752 -0.08043,0.0254 -0.150284,0.05927 l -0.05715,-0.1397 q 0.07408,-0.04022 0.175684,-0.06773 0.1016,-0.02963 0.211667,-0.02963 z m 0.05503,0.605368 q -0.211667,0.0085 -0.294217,0.06773 -0.08043,0.05927 -0.08043,0.167217 0,0.09525 0.05715,0.1397 0.05927,0.04445 0.150283,0.04445 0.143934,0 0.239184,-0.07832 0.09525,-0.08043 0.09525,-0.245533 v -0.1016 z"
         id="path3259" />
      <path
         d="m 65.913326,24.034963 q -0.150284,0 -0.268817,-0.06138 -0.116417,-0.06138 -0.18415,-0.1905 -0.06562,-0.129117 -0.06562,-0.3302 0,-0.209551 0.06985,-0.340784 0.06985,-0.131234 0.188384,-0.192617 0.12065,-0.06138 0.27305,-0.06138 0.08678,0 0.167217,0.01905 0.08043,0.01693 0.131234,0.04233 l -0.05715,0.154517 q -0.0508,-0.01905 -0.118533,-0.03598 -0.06773,-0.01693 -0.127,-0.01693 -0.334434,0 -0.334434,0.429684 0,0.205317 0.08043,0.315384 0.08255,0.10795 0.243417,0.10795 0.09313,0 0.162984,-0.01905 0.07197,-0.01905 0.131233,-0.04657 v 0.1651 q -0.05715,0.02963 -0.127,0.04445 -0.06773,0.01693 -0.1651,0.01693 z"
         id="path3261" />
      <path
         d="m 66.912392,22.858094 q 0.146051,0 0.249768,0.0635 0.105833,0.0635 0.160866,0.179917 0.05715,0.1143 0.05715,0.268817 v 0.112184 h -0.776818 q 0.0042,0.192617 0.09737,0.294217 0.09525,0.09948 0.264584,0.09948 0.10795,0 0.190501,-0.01905 0.08467,-0.02117 0.173566,-0.05927 v 0.162983 q -0.08678,0.0381 -0.17145,0.05503 -0.08467,0.01905 -0.201083,0.01905 -0.160867,0 -0.285751,-0.06562 -0.122767,-0.06562 -0.192617,-0.194734 -0.06773,-0.131233 -0.06773,-0.319617 0,-0.186267 0.06138,-0.319617 0.0635,-0.13335 0.175684,-0.205317 0.1143,-0.07197 0.264583,-0.07197 z m -0.0021,0.152401 q -0.13335,0 -0.211667,0.08678 -0.0762,0.08467 -0.09102,0.237067 h 0.577851 q -0.0021,-0.143934 -0.06773,-0.232834 -0.06562,-0.09102 -0.207433,-0.09102 z"
         id="path3263" />
    </g>
    <g
       aria-label="Classification"
       transform="translate(53.072843,46.891255)"
       id="text1077-7-7-6"
       style="font-size:2.11667px;white-space:pre;shape-inside:url(#rect1073-6-3-3);display:inline;stroke:#000000;stroke-width:0.167;stroke-linejoin:bevel">
      <path
         d="m 0.85301797,-1.3652521 q -0.24341704,0 -0.38311725,0.1629836 -0.13970022,0.1629836 -0.13970022,0.44661735 0,0.28151709 0.12911687,0.44661735 0.13123353,0.16298358 0.39158393,0.16298358 0.0994835,0 0.1883836,-0.0169334 0.0889,-0.0169334 0.1735669,-0.0423334 v 0.16510025 Q 1.1281851,-0.00846668 1.0371682,0.00635001 0.94826811,0.0211667 0.82338459,0.0211667 q -0.23071702,0 -0.38523392,-0.09525015 -0.1545169,-0.09525014 -0.23283369,-0.27093374 -0.0762001,-0.1756836 -0.0762001,-0.41275063 0,-0.22860035 0.0825501,-0.40216728 0.0846668,-0.1756836 0.24765038,-0.2730504 0.16298358,-0.099484 0.39581727,-0.099484 0.23918366,0 0.41698396,0.0889 l -0.0762,0.1608669 q -0.06985,-0.03175 -0.1566336,-0.05715 -0.0846668,-0.0254 -0.18626693,-0.0254 z"
         id="path3205" />
      <path
         d="m 1.7039192,0 h -0.186267 v -1.6086691 h 0.186267 z"
         id="path3207" />
      <path
         d="m 2.4934358,-1.1535851 q 0.2074336,0 0.3069171,0.091017 0.099483,0.0910168 0.099483,0.28998379 V 0 H 2.7643695 l -0.035983,-0.16086691 h -0.00847 q -0.074083,0.09313347 -0.1566335,0.13758354 -0.080433,0.04445007 -0.224367,0.04445007 -0.1545169,0 -0.2561171,-0.08043346 -0.1016001,-0.08255012 -0.1016001,-0.25611705 0,-0.1693336 0.1333502,-0.2603504 0.1333502,-0.0931335 0.4106339,-0.10160016 l 0.192617,-0.00635 v -0.0677334 q 0,-0.14181688 -0.061383,-0.1968503 -0.061383,-0.0550334 -0.1735669,-0.0550334 -0.0889,0 -0.1693336,0.0275167 -0.080433,0.0254 -0.1502835,0.0592668 l -0.05715,-0.13970024 q 0.074083,-0.040217 0.1756836,-0.067733 0.1016001,-0.029633 0.211667,-0.029633 z m 0.055033,0.6053676 q -0.211667,0.008467 -0.2942171,0.0677334 -0.080433,0.0592668 -0.080433,0.16721693 0,0.0952501 0.05715,0.13970021 0.059267,0.0444501 0.1502836,0.0444501 0.1439335,0 0.2391837,-0.0783168 0.09525,-0.0804335 0.09525,-0.24553371 v -0.10160015 z"
         id="path3209" />
      <path
         d="m 3.9899231,-0.31326714 q 0,0.16510025 -0.1227669,0.24976704 -0.1227668,0.0846668 -0.3302005,0.0846668 -0.1185335,0 -0.205317,-0.01905003 -0.084667,-0.01905003 -0.1502835,-0.05291675 v -0.16933359 q 0.067733,0.0338667 0.1629836,0.0635001 0.097367,0.0275167 0.1968503,0.0275167 0.1418168,0 0.2053169,-0.0444501 0.0635,-0.0465667 0.0635,-0.12276686 0,-0.0423334 -0.023283,-0.0762001 -0.023283,-0.0338667 -0.084667,-0.0677334 -0.059267,-0.0338667 -0.1714503,-0.0762001 -0.1100668,-0.0423334 -0.1883836,-0.0846668 -0.078317,-0.0423334 -0.1206502,-0.10160015 -0.042333,-0.0592668 -0.042333,-0.15240024 0,-0.14393355 0.1164169,-0.22225036 0.1185335,-0.078317 0.3090338,-0.078317 0.1037168,0 0.1926169,0.021167 0.091017,0.01905 0.1693336,0.055033 l -0.0635,0.14816685 q -0.071967,-0.0296334 -0.1502835,-0.0508001 -0.078317,-0.0211667 -0.160867,-0.0211667 -0.1143001,0 -0.1756836,0.0381 -0.059267,0.0359834 -0.059267,0.0994835 0,0.0465667 0.027517,0.0804335 0.027517,0.03175 0.091017,0.0635001 0.065617,0.0296334 0.1735669,0.0719668 0.1079502,0.0402167 0.1841503,0.0825501 0.0762,0.0423334 0.1164169,0.10371682 0.040217,0.0592668 0.040217,0.15028357 z"
         id="path3211" />
      <path
         d="m 5.0038083,-0.31326714 q 0,0.16510025 -0.1227668,0.24976704 -0.1227669,0.0846668 -0.3302005,0.0846668 -0.1185335,0 -0.205317,-0.01905003 -0.084667,-0.01905003 -0.1502836,-0.05291675 v -0.16933359 q 0.067734,0.0338667 0.1629836,0.0635001 0.097367,0.0275167 0.1968503,0.0275167 0.1418169,0 0.205317,-0.0444501 0.0635,-0.0465667 0.0635,-0.12276686 0,-0.0423334 -0.023283,-0.0762001 -0.023283,-0.0338667 -0.084667,-0.0677334 -0.059267,-0.0338667 -0.1714502,-0.0762001 -0.1100669,-0.0423334 -0.1883836,-0.0846668 -0.078317,-0.0423334 -0.1206502,-0.10160015 -0.042333,-0.0592668 -0.042333,-0.15240024 0,-0.14393355 0.1164168,-0.22225036 0.1185335,-0.078317 0.3090338,-0.078317 0.1037168,0 0.192617,0.021167 0.091017,0.01905 0.1693336,0.055033 l -0.0635,0.14816685 q -0.071967,-0.0296334 -0.1502836,-0.0508001 -0.078317,-0.0211667 -0.1608669,-0.0211667 -0.1143002,0 -0.1756836,0.0381 -0.059267,0.0359834 -0.059267,0.0994835 0,0.0465667 0.027517,0.0804335 0.027517,0.03175 0.091017,0.0635001 0.065617,0.0296334 0.1735669,0.0719668 0.1079502,0.0402167 0.1841503,0.0825501 0.0762,0.0423334 0.1164168,0.10371682 0.040217,0.0592668 0.040217,0.15028357 z"
         id="path3213" />
      <path
         d="m 5.3742257,-1.5599857 q 0.042333,0 0.074083,0.029633 0.033867,0.027517 0.033867,0.0889 0,0.059267 -0.033867,0.0889 -0.03175,0.029633 -0.074083,0.029633 -0.046567,0 -0.078317,-0.029633 -0.03175,-0.029633 -0.03175,-0.0889 0,-0.061383 0.03175,-0.0889 0.03175,-0.029633 0.078317,-0.029633 z m 0.091017,0.4254506 V 0 H 5.2789756 v -1.1345351 z"
         id="path3215" />
      <path
         d="M 6.3478922,-0.99060151 H 6.0621418 V 0 H 5.8758748 V -0.99060151 H 5.6769079 V -1.077385 l 0.1989669,-0.0635 v -0.065617 q 0,-0.2201337 0.097367,-0.3153839 0.097367,-0.097367 0.2709338,-0.097367 0.067733,0 0.1227668,0.0127 0.05715,0.010583 0.097367,0.0254 l -0.048683,0.1460502 q -0.033867,-0.010583 -0.078317,-0.021167 -0.04445,-0.010583 -0.091017,-0.010583 -0.093133,0 -0.1397002,0.0635 -0.04445,0.061383 -0.04445,0.1947336 v 0.074083 H 6.3478922 Z M 6.6484593,-1.5599857 q 0.042333,0 0.074084,0.029633 0.033867,0.027517 0.033867,0.0889 0,0.059267 -0.033867,0.0889 -0.03175,0.029633 -0.074084,0.029633 -0.046567,0 -0.078317,-0.029633 -0.03175,-0.029633 -0.03175,-0.0889 0,-0.061383 0.03175,-0.0889 0.03175,-0.029633 0.078317,-0.029633 z m 0.091017,0.4254506 V 0 H 6.5532092 v -1.1345351 z"
         id="path3217" />
      <path
         d="m 7.5543926,0.0211667 q -0.1502836,0 -0.2688171,-0.06138343 -0.1164168,-0.06138342 -0.1841503,-0.19050029 -0.065617,-0.12911686 -0.065617,-0.3302005 0,-0.20955032 0.06985,-0.34078385 0.06985,-0.13123353 0.1883836,-0.19261693 0.1206502,-0.061383 0.2730504,-0.061383 0.086784,0 0.1672169,0.01905 0.080433,0.016933 0.1312336,0.042333 l -0.05715,0.15451687 q -0.0508,-0.01905 -0.1185335,-0.0359834 -0.067734,-0.0169334 -0.1270002,-0.0169334 -0.3344339,0 -0.3344339,0.42968399 0,0.20531698 0.080433,0.31538381 0.08255,0.10795017 0.243417,0.10795017 0.093134,0 0.1629836,-0.01905 0.071967,-0.01905 0.1312335,-0.0465667 v 0.16510025 Q 7.789343,-0.01058335 7.7194929,0.00423334 7.6517594,0.0211667 7.5543926,0.0211667 Z"
         id="path3219" />
      <path
         d="m 8.5449933,-1.1535851 q 0.2074337,0 0.3069171,0.091017 0.099483,0.0910168 0.099483,0.28998379 V 0 H 8.8159271 L 8.7799437,-0.16086691 H 8.771477 Q 8.6973935,-0.06773344 8.6148434,-0.02328337 8.53441,0.0211667 8.3904764,0.0211667 q -0.1545169,0 -0.2561171,-0.08043346 -0.1016001,-0.08255012 -0.1016001,-0.25611705 0,-0.1693336 0.1333502,-0.2603504 0.1333502,-0.0931335 0.410634,-0.10160016 l 0.1926169,-0.00635 v -0.0677334 q 0,-0.14181688 -0.061383,-0.1968503 -0.061383,-0.0550334 -0.1735669,-0.0550334 -0.0889,0 -0.1693336,0.0275167 -0.080433,0.0254 -0.1502836,0.0592668 l -0.05715,-0.13970024 q 0.074084,-0.040217 0.1756836,-0.067733 0.1016002,-0.029633 0.211667,-0.029633 z m 0.055033,0.6053676 q -0.211667,0.008467 -0.2942171,0.0677334 -0.080433,0.0592668 -0.080433,0.16721693 0,0.0952501 0.05715,0.13970021 0.059267,0.0444501 0.1502836,0.0444501 0.1439336,0 0.2391837,-0.0783168 0.09525,-0.0804335 0.09525,-0.24553371 v -0.10160015 z"
         id="path3221" />
      <path
         d="m 9.6816465,-0.13123353 q 0.042333,0 0.086784,-0.00635 0.04445,-0.008467 0.071967,-0.0169334 v 0.14181688 Q 9.8107634,0.00211667 9.7557299,0.01058335 9.7006965,0.0211667 9.6498965,0.0211667 q -0.0889,0 -0.1651003,-0.02963338 Q 9.4107128,-0.04021673 9.364146,-0.11641684 9.3175793,-0.19261696 9.3175793,-0.3302005 V -0.99060151 H 9.1567124 v -0.0889001 l 0.1629835,-0.074083 0.074084,-0.2413004 h 0.1100668 v 0.2603504 h 0.3280839 v 0.14393359 H 9.5038462 v 0.65616767 q 0,0.10371682 0.048683,0.1545169 0.0508,0.0486834 0.1291169,0.0486834 z"
         id="path3223" />
      <path
         d="m 10.162131,-1.5599857 q 0.04233,0 0.07408,0.029633 0.03387,0.027517 0.03387,0.0889 0,0.059267 -0.03387,0.0889 -0.03175,0.029633 -0.07408,0.029633 -0.04657,0 -0.07832,-0.029633 -0.03175,-0.029633 -0.03175,-0.0889 0,-0.061383 0.03175,-0.0889 0.03175,-0.029633 0.07832,-0.029633 z m 0.09102,0.4254506 V 0 h -0.186267 v -1.1345351 z"
         id="path3225" />
      <path
         d="m 11.599349,-0.5693842 q 0,0.28151709 -0.143934,0.436034 -0.141817,0.1545169 -0.385234,0.1545169 -0.150283,0 -0.268817,-0.06773344 -0.116417,-0.0698501 -0.18415,-0.20108364 -0.06773,-0.1333502 -0.06773,-0.32173382 0,-0.2815171 0.141817,-0.4339173 0.141817,-0.1524003 0.385234,-0.1524003 0.154517,0 0.270934,0.06985 0.118533,0.067734 0.18415,0.19896701 0.06773,0.12911687 0.06773,0.31750049 z m -0.857252,0 q 0,0.20108364 0.07832,0.31961715 0.08043,0.11641685 0.254,0.11641685 0.171451,0 0.251884,-0.11641685 0.08043,-0.11853351 0.08043,-0.31961715 0,-0.20108364 -0.08043,-0.31538382 -0.08043,-0.11430017 -0.254,-0.11430017 -0.173567,0 -0.251884,0.11430017 -0.07832,0.11430018 -0.07832,0.31538382 z"
         id="path3227" />
      <path
         d="m 12.439666,-1.1557018 q 0.2032,0 0.306917,0.099483 0.103717,0.0973668 0.103717,0.31750051 V 0 h -0.184151 v -0.72601777 q 0,-0.27305042 -0.254,-0.27305042 -0.188384,0 -0.26035,0.1058335 -0.07197,0.10583349 -0.07197,0.30480046 V 0 h -0.186267 v -1.1345351 h 0.150283 l 0.02752,0.15451694 h 0.01058 q 0.05503,-0.0889001 0.152401,-0.13123354 0.09737,-0.04445 0.205317,-0.04445 z"
         id="path3229" />
    </g>
    <path
       style="fill:none;fill-rule:evenodd;stroke:#000000;stroke-width:0.274975px;stroke-linecap:butt;stroke-linejoin:miter;stroke-opacity:1;marker-start:url(#marker2787);marker-end:url(#Arrow1)"
       d="m 95.370827,19.744251 h 3.715102"
       id="path2566" />
    <path
       id="rect1073-6-3-5"
       style="fill:none;stroke:#000000;stroke-width:0.0997503;stroke-linejoin:bevel"
       d="m 50.564136,31.665571 h 17.655853 c 0.07042,0 0.127108,0.05669 0.127108,0.127109 v 3.137293 c 0,0.07042 -0.05669,0.127109 -0.127108,0.127109 H 50.564136 c -0.07042,0 -0.127109,-0.05669 -0.127109,-0.127109 V 31.79268 c 0,-0.07042 0.05669,-0.127109 0.127109,-0.127109 z" />
    <g
       aria-label="Solver Frontend"
       transform="translate(0.920375,0.522808)"
       id="text1077-7-7-9"
       style="font-size:2.11667px;white-space:pre;shape-inside:url(#rect1073-6-3-5);display:inline;stroke:#000000;stroke-width:0.167;stroke-linejoin:bevel">
      <path
         d="m 51.500068,33.187637 q 0,0.201084 -0.14605,0.313267 -0.14605,0.112184 -0.393701,0.112184 -0.127,0 -0.23495,-0.01905 -0.10795,-0.01905 -0.179917,-0.05292 v -0.182034 q 0.0762,0.03387 0.188384,0.06138 0.1143,0.02752 0.23495,0.02752 0.169334,0 0.254001,-0.06562 0.08678,-0.06562 0.08678,-0.177801 0,-0.07408 -0.03175,-0.124883 -0.03175,-0.0508 -0.110067,-0.09313 -0.0762,-0.04445 -0.213784,-0.09313 -0.192617,-0.06985 -0.2921,-0.17145 -0.09737,-0.1016 -0.09737,-0.277284 0,-0.12065 0.06138,-0.205317 0.06138,-0.08678 0.169333,-0.13335 0.110067,-0.04657 0.251884,-0.04657 0.124883,0 0.2286,0.02328 0.103717,0.02328 0.188384,0.06138 l -0.05927,0.162983 q -0.07832,-0.03387 -0.17145,-0.05715 -0.09102,-0.02328 -0.1905,-0.02328 -0.141817,0 -0.213784,0.06138 -0.07197,0.05927 -0.07197,0.158751 0,0.0762 0.03175,0.127 0.03175,0.0508 0.103717,0.09102 0.07197,0.04022 0.194734,0.08678 0.13335,0.04868 0.224367,0.105834 0.09313,0.05503 0.1397,0.13335 0.04868,0.07832 0.04868,0.19685 z"
         id="path3175" />
      <path
         d="m 52.765836,33.022537 q 0,0.281517 -0.143933,0.436034 -0.141817,0.154517 -0.385234,0.154517 -0.150284,0 -0.268817,-0.06773 -0.116417,-0.06985 -0.18415,-0.201083 -0.06773,-0.133351 -0.06773,-0.321734 0,-0.281517 0.141817,-0.433917 0.141817,-0.152401 0.385234,-0.152401 0.154517,0 0.270934,0.06985 0.118533,0.06773 0.18415,0.198967 0.06773,0.129117 0.06773,0.317501 z m -0.857251,0 q 0,0.201083 0.07832,0.319617 0.08043,0.116417 0.254,0.116417 0.171451,0 0.251884,-0.116417 0.08043,-0.118534 0.08043,-0.319617 0,-0.201084 -0.08043,-0.315384 -0.08043,-0.1143 -0.254,-0.1143 -0.173567,0 -0.251884,0.1143 -0.07832,0.1143 -0.07832,0.315384 z"
         id="path3177" />
      <path
         d="m 53.246319,33.591921 h -0.186267 v -1.608669 h 0.186267 z"
         id="path3179" />
      <path
         d="m 53.855919,33.591921 -0.429684,-1.134535 h 0.198967 l 0.241301,0.668868 q 0.01693,0.04657 0.03598,0.103716 0.01905,0.05715 0.03387,0.110067 0.01482,0.0508 0.02117,0.08678 h 0.0085 q 0.0085,-0.03598 0.02328,-0.0889 0.01693,-0.05292 0.03598,-0.110067 0.02117,-0.05715 0.03598,-0.1016 l 0.241301,-0.668868 h 0.198967 l -0.431801,1.134535 z"
         id="path3181" />
      <path
         d="m 55.11957,32.436219 q 0.14605,0 0.249767,0.0635 0.105834,0.0635 0.160867,0.179917 0.05715,0.1143 0.05715,0.268817 v 0.112184 h -0.776818 q 0.0042,0.192617 0.09737,0.294217 0.09525,0.09948 0.264584,0.09948 0.10795,0 0.1905,-0.01905 0.08467,-0.02117 0.173567,-0.05927 v 0.162983 q -0.08678,0.0381 -0.17145,0.05503 -0.08467,0.01905 -0.201084,0.01905 -0.160867,0 -0.28575,-0.06562 -0.122767,-0.06562 -0.192617,-0.194734 -0.06773,-0.131233 -0.06773,-0.319617 0,-0.186267 0.06138,-0.319617 0.0635,-0.13335 0.175683,-0.205317 0.114301,-0.07197 0.264584,-0.07197 z m -0.0021,0.152401 q -0.13335,0 -0.211667,0.08678 -0.0762,0.08467 -0.09102,0.237067 h 0.577851 q -0.0021,-0.143934 -0.06773,-0.232834 -0.06562,-0.09102 -0.207434,-0.09102 z"
         id="path3183" />
      <path
         d="m 56.404387,32.436219 q 0.03175,0 0.06773,0.0042 0.0381,0.0021 0.06562,0.0085 l -0.02328,0.171451 q -0.02752,-0.0064 -0.06138,-0.01058 -0.03175,-0.0042 -0.06138,-0.0042 -0.08678,0 -0.162984,0.04868 -0.0762,0.04657 -0.122767,0.13335 -0.04445,0.08467 -0.04445,0.198967 v 0.605368 h -0.186267 v -1.134535 h 0.152401 l 0.02117,0.207434 h 0.0085 q 0.05503,-0.09313 0.141817,-0.160867 0.08678,-0.06773 0.205317,-0.06773 z"
         id="path3185" />
      <path
         d="m 57.515639,33.591921 h -0.1905 v -1.511302 h 0.844551 v 0.167217 h -0.654051 v 0.535517 h 0.613835 v 0.167217 h -0.613835 z"
         id="path3187" />
      <path
         d="m 58.927456,32.436219 q 0.03175,0 0.06773,0.0042 0.0381,0.0021 0.06562,0.0085 l -0.02328,0.171451 q -0.02752,-0.0064 -0.06138,-0.01058 -0.03175,-0.0042 -0.06138,-0.0042 -0.08678,0 -0.162983,0.04868 -0.0762,0.04657 -0.122767,0.13335 -0.04445,0.08467 -0.04445,0.198967 v 0.605368 h -0.186267 v -1.134535 h 0.1524 l 0.02117,0.207434 h 0.0085 q 0.05503,-0.09313 0.141817,-0.160867 0.08678,-0.06773 0.205317,-0.06773 z"
         id="path3189" />
      <path
         d="m 60.216508,33.022537 q 0,0.281517 -0.143934,0.436034 -0.141817,0.154517 -0.385234,0.154517 -0.150284,0 -0.268817,-0.06773 -0.116417,-0.06985 -0.18415,-0.201083 -0.06773,-0.133351 -0.06773,-0.321734 0,-0.281517 0.141817,-0.433917 0.141817,-0.152401 0.385234,-0.152401 0.154517,0 0.270934,0.06985 0.118533,0.06773 0.18415,0.198967 0.06773,0.129117 0.06773,0.317501 z m -0.857252,0 q 0,0.201083 0.07832,0.319617 0.08043,0.116417 0.254,0.116417 0.171451,0 0.251884,-0.116417 0.08043,-0.118534 0.08043,-0.319617 0,-0.201084 -0.08043,-0.315384 -0.08043,-0.1143 -0.254,-0.1143 -0.173567,0 -0.251884,0.1143 -0.07832,0.1143 -0.07832,0.315384 z"
         id="path3191" />
      <path
         d="m 61.056825,32.436219 q 0.2032,0 0.306917,0.09948 0.103716,0.09737 0.103716,0.3175 v 0.738718 h -0.18415 v -0.726018 q 0,-0.27305 -0.254,-0.27305 -0.188384,0 -0.260351,0.105833 -0.07197,0.105834 -0.07197,0.304801 v 0.588434 h -0.186267 v -1.134535 h 0.150283 l 0.02752,0.154517 h 0.01058 q 0.05503,-0.0889 0.152401,-0.131234 0.09737,-0.04445 0.205317,-0.04445 z"
         id="path3193" />
      <path
         d="m 62.197709,33.460687 q 0.04233,0 0.08678,-0.0063 0.04445,-0.0085 0.07197,-0.01693 v 0.141817 q -0.02963,0.01482 -0.08467,0.02328 -0.05503,0.01058 -0.105834,0.01058 -0.0889,0 -0.1651,-0.02963 -0.07408,-0.03175 -0.12065,-0.10795 -0.04657,-0.0762 -0.04657,-0.213783 V 32.60132 h -0.160867 v -0.0889 l 0.162984,-0.07408 0.07408,-0.2413 h 0.110067 v 0.26035 h 0.328084 v 0.143934 h -0.328084 v 0.656167 q 0,0.103717 0.04868,0.154517 0.0508,0.04868 0.129117,0.04868 z"
         id="path3195" />
      <path
         d="m 63.021094,32.436219 q 0.14605,0 0.249767,0.0635 0.105834,0.0635 0.160867,0.179917 0.05715,0.1143 0.05715,0.268817 v 0.112184 H 62.71206 q 0.0042,0.192617 0.09737,0.294217 0.09525,0.09948 0.264584,0.09948 0.10795,0 0.1905,-0.01905 0.08467,-0.02117 0.173567,-0.05927 v 0.162983 q -0.08678,0.0381 -0.17145,0.05503 -0.08467,0.01905 -0.201084,0.01905 -0.160867,0 -0.28575,-0.06562 -0.122767,-0.06562 -0.192617,-0.194734 -0.06773,-0.131233 -0.06773,-0.319617 0,-0.186267 0.06138,-0.319617 0.0635,-0.13335 0.175683,-0.205317 0.114301,-0.07197 0.264584,-0.07197 z m -0.0021,0.152401 q -0.133351,0 -0.211667,0.08678 -0.0762,0.08467 -0.09102,0.237067 h 0.577851 q -0.0021,-0.143934 -0.06773,-0.232834 -0.06562,-0.09102 -0.207433,-0.09102 z"
         id="path3197" />
      <path
         d="m 64.322844,32.436219 q 0.203201,0 0.306917,0.09948 0.103717,0.09737 0.103717,0.3175 v 0.738718 h -0.18415 v -0.726018 q 0,-0.27305 -0.254,-0.27305 -0.188384,0 -0.260351,0.105833 -0.07197,0.105834 -0.07197,0.304801 v 0.588434 h -0.186267 v -1.134535 h 0.150284 l 0.02752,0.154517 h 0.01058 q 0.05503,-0.0889 0.1524,-0.131234 0.09737,-0.04445 0.205317,-0.04445 z"
         id="path3199" />
      <path
         d="m 65.487012,33.613088 q -0.211667,0 -0.338667,-0.14605 -0.127,-0.148167 -0.127,-0.440268 0,-0.2921 0.127,-0.440267 0.129117,-0.150284 0.340784,-0.150284 0.131234,0 0.213784,0.04868 0.08467,0.04868 0.137583,0.118533 h 0.0127 q -0.0021,-0.02752 -0.0085,-0.08043 -0.0042,-0.05503 -0.0042,-0.08678 v -0.452967 h 0.186267 v 1.608669 H 65.87648 l -0.02752,-0.1524 h -0.0085 q -0.0508,0.07197 -0.135467,0.122767 -0.08467,0.0508 -0.218017,0.0508 z m 0.02963,-0.154517 q 0.179917,0 0.251884,-0.09737 0.07408,-0.09948 0.07408,-0.29845 v -0.03387 q 0,-0.211667 -0.06985,-0.323851 -0.06985,-0.1143 -0.258234,-0.1143 -0.150283,0 -0.226484,0.12065 -0.07408,0.118534 -0.07408,0.319618 0,0.2032 0.07408,0.315383 0.0762,0.112184 0.228601,0.112184 z"
         id="path3201" />
    </g>
    <path
       style="fill:none;fill-rule:evenodd;stroke:#000000;stroke-width:0.249693;stroke-linecap:butt;stroke-linejoin:miter;stroke-dasharray:none;stroke-opacity:1;marker-start:url(#marker7383);marker-end:url(#marker3250)"
       d="m 59.39206,26.590415 v 4.724928"
       id="path3182" />
    <path
       style="fill:none;fill-rule:evenodd;stroke:#000000;stroke-width:0.262293px;stroke-linecap:butt;stroke-linejoin:miter;stroke-opacity:1;marker-end:url(#marker3638)"
       d="M 83.733727,33.679127 H 68.652477"
       id="path3486" />
    <path
       style="display:inline;fill:none;fill-rule:evenodd;stroke:#000000;stroke-width:0.266587px;stroke-linecap:butt;stroke-linejoin:miter;stroke-opacity:1;marker-end:url(#marker3638)"
       d="m 83.733727,33.674715 -10e-7,-11.637254"
       id="path3774" />
    <g
       style="fill:none;fill-rule:nonzero;stroke:none;stroke-width:0;stroke-linecap:butt;stroke-linejoin:miter;stroke-miterlimit:10;stroke-dasharray:none"
       transform="matrix(0.08009104,0,0,0.08681817,32.277994,20.83428)"
       id="g7010">
      <path
         d="M 77.474,17.28 61.526,1.332 C 60.668,0.473 59.525,0 58.311,0 H 15.742 c -2.508,0 -4.548,2.04 -4.548,4.548 v 80.904 c 0,2.508 2.04,4.548 4.548,4.548 h 58.516 c 2.508,0 4.549,-2.04 4.549,-4.548 V 20.496 c 0,-1.215 -0.474,-2.358 -1.333,-3.216 z M 61.073,5.121 73.684,17.733 H 62.35 c -0.704,0 -1.276,-0.573 -1.276,-1.277 V 5.121 Z M 74.258,87 H 15.742 c -0.854,0 -1.548,-0.694 -1.548,-1.548 V 4.548 C 14.194,3.694 14.888,3 15.742,3 h 42.332 v 13.456 c 0,2.358 1.918,4.277 4.276,4.277 h 13.457 v 64.719 c 0,0.854 -0.695,1.548 -1.549,1.548 z"
         style="opacity:1;fill:#000000;fill-rule:nonzero;stroke:none;stroke-width:1;stroke-linecap:butt;stroke-linejoin:miter;stroke-miterlimit:10;stroke-dasharray:none"
         stroke-linecap="round"
         id="path6985" />
      <path
         d="m 67.795107,33.319 -45.567533,-9.83e-4 c -1.048903,-2.3e-5 -1.897893,-0.671 -1.897893,-1.5 0,-0.829 0.84899,-1.500023 1.897893,-1.5 L 67.795107,30.319 c 1.047637,2.3e-5 1.897893,0.671 1.897893,1.5 0,0.829 -0.850256,1.500023 -1.897893,1.5 z"
         style="opacity:1;fill:#000000;fill-rule:nonzero;stroke:none;stroke-width:1.12484;stroke-linecap:butt;stroke-linejoin:miter;stroke-miterlimit:10;stroke-dasharray:none"
         stroke-linecap="round"
         id="path6987"
         sodipodi:nodetypes="sssssss" />
      <linearGradient
         id="linearGradient7034"
         gradientUnits="userSpaceOnUse"
         x1="21.8064"
         y1="19.2332"
         x2="42.298401"
         y2="19.2332">
        <stop
           offset="0%"
           style="stop-color:rgb(255,255,255);stop-opacity: 1"
           id="stop7030" />
        <stop
           offset="100%"
           style="stop-color:rgb(0,0,0);stop-opacity: 1"
           id="stop7032" />
      </linearGradient>
      <path
         id="line6996"
         style="opacity:1;fill:url(#SVGID_1);stroke-width:1"
         d="M -10.246,0 H 10.246" />
      <path
         d="M 42.298,20.733 H 21.807 c -0.829,0 -1.5,-0.671 -1.5,-1.5 0,-0.829 0.671,-1.5 1.5,-1.5 h 20.492 c 0.829,0 1.5,0.671 1.5,1.5 0,0.829 -0.672,1.5 -1.501,1.5 z"
         style="opacity:1;fill:#000000;fill-rule:nonzero;stroke:none;stroke-width:1;stroke-linecap:butt;stroke-linejoin:miter;stroke-miterlimit:10;stroke-dasharray:none"
         stroke-linecap="round"
         id="path6998" />
      <path
         d="M 68.193,44.319 H 21.807 c -0.829,0 -1.5,-0.671 -1.5,-1.5 0,-0.829 0.671,-1.5 1.5,-1.5 h 46.387 c 0.828,0 1.5,0.671 1.5,1.5 0,0.829 -0.673,1.5 -1.501,1.5 z"
         style="opacity:1;fill:#000000;fill-rule:nonzero;stroke:none;stroke-width:1;stroke-linecap:butt;stroke-linejoin:miter;stroke-miterlimit:10;stroke-dasharray:none"
         stroke-linecap="round"
         id="path7000" />
      <path
         d="M 68.082728,55.325442 21.924804,55.319 C 21.030698,55.318875 20.307,54.647 20.307,53.819 c 0,-0.828 0.723698,-1.500125 1.617804,-1.5 l 46.159002,0.0064 c 0.893028,1.25e-4 1.617804,0.672 1.617804,1.5 0,0.828 -0.724776,1.500125 -1.618882,1.5 z"
         style="opacity:1;fill:#000000;fill-rule:nonzero;stroke:none;stroke-width:1.03853;stroke-linecap:butt;stroke-linejoin:miter;stroke-miterlimit:10;stroke-dasharray:none"
         stroke-linecap="round"
         id="path7002"
         sodipodi:nodetypes="sssssss" />
      <path
         d="M 68.193,66.319 H 21.807 c -0.829,0 -1.5,-0.672 -1.5,-1.5 0,-0.828 0.671,-1.5 1.5,-1.5 h 46.387 c 0.828,0 1.5,0.672 1.5,1.5 0,0.828 -0.673,1.5 -1.501,1.5 z"
         style="opacity:1;fill:#000000;fill-rule:nonzero;stroke:none;stroke-width:1;stroke-linecap:butt;stroke-linejoin:miter;stroke-miterlimit:10;stroke-dasharray:none"
         stroke-linecap="round"
         id="path7006" />
      <path
         d="M 68.193,77.319 H 55.544 c -0.828,0 -1.5,-0.672 -1.5,-1.5 0,-0.828 0.672,-1.5 1.5,-1.5 h 12.649 c 0.828,0 1.5,0.672 1.5,1.5 0,0.828 -0.672,1.5 -1.5,1.5 z"
         style="opacity:1;fill:#000000;fill-rule:nonzero;stroke:none;stroke-width:1;stroke-linecap:butt;stroke-linejoin:miter;stroke-miterlimit:10;stroke-dasharray:none"
         stroke-linecap="round"
         id="path7008" />
    </g>
    <path
       style="fill:none;fill-rule:evenodd;stroke:#000000;stroke-width:0.252574px;stroke-linecap:butt;stroke-linejoin:miter;stroke-opacity:1;marker-start:url(#marker7265)"
       d="M 49.627999,24.154127 H 39.019144"
       id="path7261" />
    <path
       style="fill:none;fill-rule:evenodd;stroke:#000000;stroke-width:0.279798px;stroke-linecap:butt;stroke-linejoin:miter;stroke-opacity:1;marker-end:url(#marker7383)"
       d="m 59.39206,35.057082 v 9.468444"
       id="path7706" />
    <g
       aria-label="Test Instance"
       transform="translate(28.879916,30.454498)"
       id="text1077-7-7-5"
       style="font-size:2.11667px;white-space:pre;shape-inside:url(#rect1073-6-3-7);display:inline;stroke:#000000;stroke-width:0.167;stroke-linejoin:bevel">
      <path
         d="M 0.68368438,0 H 0.49318409 V -1.3440854 H 0.0211667 v -0.1672169 h 1.1324184 v 0.1672169 H 0.68368438 Z"
         id="path3149" />
      <path
         d="m 1.6467693,-1.1557018 q 0.1460502,0 0.249767,0.0635 0.1058335,0.0635 0.1608669,0.17991698 0.05715,0.11430017 0.05715,0.26881707 v 0.11218351 H 1.3377355 q 0.00423,0.19261696 0.097367,0.29421711 0.09525,0.0994835 0.2645837,0.0994835 0.1079502,0 0.1905003,-0.01905 0.084667,-0.0211667 0.1735669,-0.0592668 v 0.16298358 Q 1.9769698,-0.01481669 1.892303,0.00211667 1.8076362,0.0211667 1.6912193,0.0211667 q -0.1608669,0 -0.2857504,-0.06561677 -0.1227668,-0.06561676 -0.192617,-0.19473363 -0.067733,-0.13123353 -0.067733,-0.31961715 0,-0.18626695 0.061383,-0.31961716 0.0635,-0.13335019 0.1756836,-0.20531699 0.1143002,-0.071967 0.2645838,-0.071967 z m -0.00212,0.1524003 q -0.1333502,0 -0.211667,0.0867834 -0.0762,0.0846668 -0.091017,0.23706702 H 1.9198197 Q 1.917703,-0.82338459 1.8520863,-0.91228472 1.7864695,-1.0033015 1.6446526,-1.0033015 Z"
         id="path3151" />
      <path
         d="m 3.1411365,-0.31326714 q 0,0.16510025 -0.1227669,0.24976704 -0.1227668,0.0846668 -0.3302005,0.0846668 -0.1185335,0 -0.2053169,-0.01905003 -0.084667,-0.01905003 -0.1502836,-0.05291675 v -0.16933359 q 0.067733,0.0338667 0.1629836,0.0635001 0.097367,0.0275167 0.1968503,0.0275167 0.1418169,0 0.205317,-0.0444501 0.0635,-0.0465667 0.0635,-0.12276686 0,-0.0423334 -0.023283,-0.0762001 -0.023283,-0.0338667 -0.084667,-0.0677334 -0.059267,-0.0338667 -0.1714503,-0.0762001 -0.1100668,-0.0423334 -0.1883836,-0.0846668 -0.078317,-0.0423334 -0.1206502,-0.10160015 -0.042333,-0.0592668 -0.042333,-0.15240024 0,-0.14393355 0.1164169,-0.22225036 0.1185335,-0.078317 0.3090338,-0.078317 0.1037168,0 0.1926169,0.021167 0.091017,0.01905 0.1693336,0.055033 l -0.0635,0.14816685 q -0.071967,-0.0296334 -0.1502835,-0.0508001 -0.078317,-0.0211667 -0.160867,-0.0211667 -0.1143001,0 -0.1756836,0.0381 -0.059267,0.0359834 -0.059267,0.0994835 0,0.0465667 0.027517,0.0804335 0.027517,0.03175 0.091017,0.0635001 0.065617,0.0296334 0.1735669,0.0719668 0.1079502,0.0402167 0.1841503,0.0825501 0.0762,0.0423334 0.1164169,0.10371682 0.040217,0.0592668 0.040217,0.15028357 z"
         id="path3153" />
      <path
         d="m 3.7951876,-0.13123353 q 0.042333,0 0.086783,-0.00635 0.04445,-0.008467 0.071967,-0.0169334 v 0.14181688 Q 3.9243045,0.00211667 3.8692711,0.01058335 3.8142377,0.0211667 3.7634376,0.0211667 q -0.0889,0 -0.1651003,-0.02963338 -0.074083,-0.03175005 -0.1206502,-0.10795016 -0.046567,-0.0762001 -0.046567,-0.21378366 V -0.99060151 H 3.2702535 v -0.0889001 l 0.1629836,-0.074083 0.074083,-0.2413004 h 0.1100669 v 0.2603504 h 0.3280838 v 0.14393359 H 3.6173874 v 0.65616767 q 0,0.10371682 0.048683,0.1545169 0.0508,0.0486834 0.1291168,0.0486834 z"
         id="path3155" />
      <path
         d="M 5.1816071,0 H 4.6355062 v -0.11006683 l 0.1778003,-0.0402167 V -1.3589021 l -0.1778003,-0.042333 v -0.1100668 h 0.5461009 v 0.1100668 l -0.1778003,0.042333 v 1.20861854 l 0.1778003,0.0402167 z"
         id="path3157" />
      <path
         d="m 5.9944099,-1.1557018 q 0.2032003,0 0.3069171,0.099483 0.1037168,0.0973668 0.1037168,0.31750051 V 0 H 6.2208935 v -0.72601777 q 0,-0.27305042 -0.2540003,-0.27305042 -0.1883837,0 -0.2603504,0.1058335 -0.071967,0.10583349 -0.071967,0.30480046 V 0 H 5.448309 v -1.1345351 h 0.1502836 l 0.027517,0.15451694 h 0.010583 q 0.055034,-0.0889001 0.1524003,-0.13123354 0.097367,-0.04445 0.205317,-0.04445 z"
         id="path3159" />
      <path
         d="m 7.495129,-0.31326714 q 0,0.16510025 -0.1227669,0.24976704 -0.1227669,0.0846668 -0.3302005,0.0846668 -0.1185335,0 -0.205317,-0.01905003 -0.084667,-0.01905003 -0.1502835,-0.05291675 v -0.16933359 q 0.067733,0.0338667 0.1629835,0.0635001 0.097367,0.0275167 0.1968503,0.0275167 0.1418169,0 0.205317,-0.0444501 0.0635,-0.0465667 0.0635,-0.12276686 0,-0.0423334 -0.023283,-0.0762001 -0.023283,-0.0338667 -0.084667,-0.0677334 -0.059267,-0.0338667 -0.1714502,-0.0762001 -0.1100669,-0.0423334 -0.1883836,-0.0846668 -0.078317,-0.0423334 -0.1206502,-0.10160015 -0.042333,-0.0592668 -0.042333,-0.15240024 0,-0.14393355 0.1164168,-0.22225036 0.1185335,-0.078317 0.3090338,-0.078317 0.1037169,0 0.192617,0.021167 0.091017,0.01905 0.1693336,0.055033 l -0.0635,0.14816685 q -0.071967,-0.0296334 -0.1502836,-0.0508001 -0.078317,-0.0211667 -0.1608669,-0.0211667 -0.1143002,0 -0.1756836,0.0381 -0.059267,0.0359834 -0.059267,0.0994835 0,0.0465667 0.027517,0.0804335 0.027517,0.03175 0.091017,0.0635001 0.065617,0.0296334 0.1735669,0.0719668 0.1079502,0.0402167 0.1841503,0.0825501 0.0762,0.0423334 0.1164168,0.10371682 0.040217,0.0592668 0.040217,0.15028357 z"
         id="path3161" />
      <path
         d="m 8.1491796,-0.13123353 q 0.042333,0 0.086783,-0.00635 0.04445,-0.008467 0.071967,-0.0169334 v 0.14181688 Q 8.2782965,0.00211667 8.2232631,0.01058335 8.1682296,0.0211667 8.1174296,0.0211667 q -0.0889,0 -0.1651003,-0.02963338 -0.074083,-0.03175005 -0.1206502,-0.10795016 -0.046567,-0.0762001 -0.046567,-0.21378366 V -0.99060151 H 7.6242455 v -0.0889001 l 0.1629836,-0.074083 0.074083,-0.2413004 h 0.1100668 v 0.2603504 h 0.3280839 v 0.14393359 H 7.9713793 v 0.65616767 q 0,0.10371682 0.048683,0.1545169 0.0508,0.0486834 0.1291169,0.0486834 z"
         id="path3163" />
      <path
         d="m 8.9640979,-1.1535851 q 0.2074336,0 0.3069171,0.091017 0.099483,0.0910168 0.099483,0.28998379 V 0 H 9.2350316 l -0.035983,-0.16086691 h -0.00847 Q 9.1164981,-0.06773344 9.033948,-0.02328337 8.9535145,0.0211667 8.809581,0.0211667 q -0.1545169,0 -0.2561171,-0.08043346 -0.1016001,-0.08255012 -0.1016001,-0.25611705 0,-0.1693336 0.1333502,-0.2603504 0.1333502,-0.0931335 0.4106339,-0.10160016 l 0.192617,-0.00635 v -0.0677334 q 0,-0.14181688 -0.061383,-0.1968503 -0.061383,-0.0550334 -0.173567,-0.0550334 -0.0889,0 -0.1693336,0.0275167 -0.080433,0.0254 -0.1502835,0.0592668 l -0.05715,-0.13970024 q 0.074083,-0.040217 0.1756836,-0.067733 0.1016002,-0.029633 0.211667,-0.029633 z m 0.055033,0.6053676 q -0.211667,0.008467 -0.2942171,0.0677334 -0.080433,0.0592668 -0.080433,0.16721693 0,0.0952501 0.05715,0.13970021 0.059267,0.0444501 0.1502836,0.0444501 0.1439335,0 0.2391837,-0.0783168 0.09525,-0.0804335 0.09525,-0.24553371 v -0.10160015 z"
         id="path3165" />
      <path
         d="m 10.267968,-1.1557018 q 0.2032,0 0.306917,0.099483 0.103717,0.0973668 0.103717,0.31750051 V 0 h -0.18415 v -0.72601777 q 0,-0.27305042 -0.254001,-0.27305042 -0.188383,0 -0.2603501,0.1058335 -0.071967,0.10583349 -0.071967,0.30480046 V 0 H 9.7218672 v -1.1345351 h 0.1502835 l 0.027517,0.15451694 h 0.010583 q 0.055033,-0.0889001 0.1524002,-0.13123354 0.09737,-0.04445 0.205317,-0.04445 z"
         id="path3167" />
      <path
         d="m 11.485054,0.0211667 q -0.150284,0 -0.268817,-0.06138343 -0.116417,-0.06138342 -0.184151,-0.19050029 -0.06562,-0.12911686 -0.06562,-0.3302005 0,-0.20955032 0.06985,-0.34078385 0.06985,-0.13123353 0.188383,-0.19261693 0.120651,-0.061383 0.273051,-0.061383 0.08678,0 0.167217,0.01905 0.08043,0.016933 0.131233,0.042333 l -0.05715,0.15451687 q -0.0508,-0.01905 -0.118533,-0.0359834 -0.06773,-0.0169334 -0.127001,-0.0169334 -0.334433,0 -0.334433,0.42968399 0,0.20531698 0.08043,0.31538381 0.08255,0.10795017 0.243417,0.10795017 0.09313,0 0.162984,-0.01905 0.07197,-0.01905 0.131233,-0.0465667 v 0.16510025 q -0.05715,0.02963338 -0.127,0.04445007 -0.06773,0.01693336 -0.1651,0.01693336 z"
         id="path3169" />
      <path
         d="m 12.48412,-1.1557018 q 0.14605,0 0.249767,0.0635 0.105834,0.0635 0.160867,0.17991698 0.05715,0.11430017 0.05715,0.26881707 v 0.11218351 h -0.776818 q 0.0042,0.19261696 0.09737,0.29421711 0.09525,0.0994835 0.264584,0.0994835 0.10795,0 0.1905,-0.01905 0.08467,-0.0211667 0.173567,-0.0592668 v 0.16298358 q -0.08678,0.03810006 -0.17145,0.05503342 -0.08467,0.01905003 -0.201084,0.01905003 -0.160867,0 -0.28575,-0.06561677 -0.122767,-0.06561676 -0.192617,-0.19473363 -0.06773,-0.13123353 -0.06773,-0.31961715 0,-0.18626695 0.06138,-0.31961716 0.0635,-0.13335019 0.175683,-0.20531699 0.114301,-0.071967 0.264584,-0.071967 z m -0.0021,0.1524003 q -0.133351,0 -0.211667,0.0867834 -0.0762,0.0846668 -0.09102,0.23706702 h 0.577851 q -0.0021,-0.14393355 -0.06773,-0.23283368 -0.06562,-0.0910168 -0.207433,-0.0910168 z"
         id="path3171" />
    </g>
    <g
       id="text2622"
       style="font-size:2.11667px;-inkscape-font-specification:'sans-serif, Normal';text-align:center;text-anchor:middle;fill:#2ebc6b;stroke:#000000;stroke-width:0.258;stroke-linejoin:bevel" />
  </g>
</svg>
